<svg width="361" height="221" viewBox="0 0 361 221" fill="none" xmlns="http://www.w3.org/2000/svg">
<g clip-path="url(#clip0)">
<path d="M361 1H1V220H361V1Z" fill="white" stroke="black"/>
<path d="M361 187H1V220H361V187Z" fill="white" stroke="black"/>
<g clip-path="url(#clip1)">
<path d="M162 10.3917H22V150.392H162V10.3917Z" fill="#A5C400"/>
<path d="M82.4837 69.1824H87.2477C94.8023 69.1824 96.2035 65.2591 96.2035 58.4051C96.2035 49.858 94.5221 47.0673 90.3653 47.0673C86.8624 47.0673 84.9124 49.9981 84.9124 56.8638V60.7871H64.2802C64.2802 39.9214 70.8657 28.3033 91.8599 28.3033C107.962 28.3033 118.038 37.5394 118.038 56.5836C118.038 69.1824 114.127 74.5069 107.962 76.8888C115.248 80.9405 119.44 85.2842 119.44 100.242C119.44 120.092 112.025 132.165 90.7389 132.165C65.9616 132.165 62.7156 116.063 62.8791 94.8004H84.4454V104.048C84.4454 109.641 86.6872 111.976 89.8983 111.976C94.1018 111.976 96.7289 109.081 96.7289 99.7045C96.7289 89.3476 94.4871 85.6928 86.6522 85.6928H82.4837V69.1824Z" fill="white"/>
<path d="M22 181.194H162V10.3917H22V181.194ZM159.198 147.589H24.8023V13.1941H159.198V147.589Z" fill="black"/>
<path d="M147.369 15.9964V17.0356H145.163V24.0414H143.855V17.0356H141.648V15.9964H147.369ZM156.395 24.0414H155.111V17.7012L152.892 24.0414H151.818L149.705 17.7012V24.0414H148.397V15.9964H150.464L152.472 21.9864L154.422 15.9964H156.442V24.0414H156.395Z" fill="black"/>
<path d="M30.8974 170.685H33.2677L35.4512 160.071H35.4979L37.7748 170.685H40.005L43.0876 157.689H40.9508L38.9425 168.315H38.8958L36.7356 157.689H34.3303L32.1234 168.315H32.0767L29.9983 157.689H27.8616L30.8974 170.685Z" fill="white"/>
<path d="M46.6138 170.685H48.9841L51.1676 160.071H51.2143L53.5029 170.685H55.7214L58.804 157.689H56.6672L54.6589 168.315H54.6122L52.452 157.689H50.0467L47.8515 168.315H47.7932L45.7148 157.689H43.578L46.6138 170.685Z" fill="white"/>
<path d="M62.3303 170.685H64.7006L66.8841 160.071H66.9308L69.2193 170.685H71.4379L74.5204 157.689H72.3953L70.3753 168.315H70.3286L68.1685 157.689H65.7748L63.568 168.315H63.5096L61.4312 157.689H59.2944L62.3303 170.685Z" fill="white"/>
<path d="M77.9066 168.128H75.6764V170.697H77.9066V168.128Z" fill="white"/>
<path fill-rule="evenodd" clip-rule="evenodd" d="M82.9391 164.193C82.9391 161.227 83.3128 159.102 85.5663 159.102C87.4579 159.102 87.9016 161.099 87.9016 163.948C87.9016 167.299 87.4229 169.284 85.5663 169.284C83.3828 169.284 82.9391 166.715 82.9391 164.193V164.193ZM81.0242 174.959H83.0676V169.191C83.2922 169.728 83.6699 170.187 84.1537 170.511C84.6375 170.835 85.206 171.009 85.7882 171.012C89.151 171.012 90.0267 166.879 90.0267 163.925C90.0267 160.071 88.8591 157.327 85.7882 157.327C85.1747 157.32 84.5741 157.504 84.0699 157.853C83.5656 158.203 83.1826 158.7 82.9741 159.277V157.666H81.0242V174.959Z" fill="white"/>
<path fill-rule="evenodd" clip-rule="evenodd" d="M94.0317 162.839V162.348C94.0317 161.578 94.2769 158.962 96.367 158.962C98.1651 158.962 98.6322 160.679 98.6322 162.126V162.839H94.0317ZM100.792 164.438V163.609C100.792 160.819 100.43 157.351 96.4604 157.351C92.4904 157.351 91.7898 161.111 91.7898 164.357C91.7898 168.817 93.1209 171.024 96.2969 171.024C96.8954 171.02 97.4868 170.895 98.035 170.655C98.5832 170.415 99.0768 170.066 99.4855 169.628C99.8942 169.191 100.21 168.675 100.412 168.112C100.615 167.549 100.7 166.951 100.664 166.353H98.6672C98.6672 167.322 98.387 169.366 96.4604 169.366C93.9616 169.366 93.9616 166.353 93.9616 164.368L100.792 164.438Z" fill="white"/>
<path fill-rule="evenodd" clip-rule="evenodd" d="M107.051 159.102C109.234 159.102 109.666 161.671 109.666 164.193C109.666 166.715 109.234 168.946 107.028 168.946C104.996 168.946 104.692 166.307 104.692 164.193C104.692 161.099 105.183 159.102 107.028 159.102H107.051ZM111.558 157.689H109.643V159.348C109.445 158.76 109.067 158.25 108.561 157.891C108.055 157.532 107.449 157.343 106.829 157.351C103.536 157.351 102.59 160.679 102.59 164.193C102.59 165.921 102.824 170.685 106.607 170.685C107.214 170.715 107.816 170.566 108.339 170.257C108.862 169.947 109.283 169.492 109.55 168.946V168.946V170.65C109.55 171.538 109.643 173.558 107.028 173.558C105.953 173.558 105.031 173.091 104.937 171.911H102.906C103.244 175.157 106.409 175.157 107.168 175.157C109.783 175.157 111.581 173.745 111.581 169.868L111.558 157.689Z" fill="white"/>
<path fill-rule="evenodd" clip-rule="evenodd" d="M114.384 170.685H116.415V157.701H114.384V170.685ZM114.384 155.704H116.415V153.369H114.384V155.704Z" fill="white"/>
<path d="M121.892 168.128H119.661V170.697H121.892V168.128Z" fill="white"/>
<path fill-rule="evenodd" clip-rule="evenodd" d="M125.149 170.685H127.181V157.701H125.149V170.685ZM125.149 155.704H127.181V153.369H125.149V155.704Z" fill="white"/>
<path d="M129.972 170.685H131.992V161.718C131.977 161.373 132.034 161.03 132.158 160.708C132.282 160.387 132.471 160.094 132.713 159.849C132.955 159.603 133.245 159.41 133.565 159.282C133.885 159.154 134.228 159.092 134.572 159.102C136.417 159.102 136.487 160.725 136.487 161.718V170.685H138.53V161.473C138.53 159.955 138.53 157.351 135.109 157.351C134.461 157.342 133.824 157.513 133.267 157.845C132.71 158.177 132.257 158.656 131.957 159.231V159.231V157.689H129.972V170.685V170.685Z" fill="white"/>
<path d="M141.8 170.685H143.843V159.301H146.073V157.689H143.843V156.172C143.843 155.272 144.275 154.934 145.151 154.934H146.097V153.182H144.602C142.641 153.182 141.788 154.21 141.788 156.172V157.689H139.932V159.301H141.823L141.8 170.685Z" fill="white"/>
<path fill-rule="evenodd" clip-rule="evenodd" d="M146.844 164.193C146.844 167.848 147.778 171.036 151.515 171.036C155.251 171.036 156.185 167.848 156.185 164.193C156.185 160.538 155.263 157.351 151.515 157.351C147.766 157.351 146.844 160.527 146.844 164.193ZM151.515 169.436C149.425 169.436 149.016 167.007 149.016 164.193C149.016 161.379 149.448 158.962 151.515 158.962C153.581 158.962 154.107 161.379 154.107 164.193C154.107 167.007 153.675 169.436 151.515 169.436Z" fill="white"/>
</g>
<g clip-path="url(#clip2)">
<path d="M342 10.3917H182V170.392H342V10.3917Z" fill="#231F20"/>
<path d="M182 43.1384L184.6 41.1784L182 37.7384V43.1384Z" fill="#58595B"/>
<path d="M191.333 36.1384L180.88 22.3917L184.987 19.245C187.933 17.0584 190.227 16.8584 192.667 20.0717C195.107 23.285 194.707 25.0584 191.333 27.6317L190.693 28.1117L194.76 33.445L191.333 36.1384ZM188.853 25.4717C190.027 24.5917 190.387 23.9917 189.227 22.4584C188.24 21.125 187.707 21.125 186.333 22.125L188.853 25.4717Z" fill="#58595B"/>
<path d="M200.947 28.8451L190.547 15.0584L198.44 9.09839L200.587 11.9517L196.333 15.1517L198.107 17.4984L201.613 14.8451L203.853 17.8051L200.333 20.4584L202.36 23.1517L206.827 19.7784L209.067 22.7384L200.947 28.8451Z" fill="#58595B"/>
<path d="M211.053 15.3917C211.68 16.2184 212.32 16.245 212.88 15.8317C213.44 15.4184 213.587 14.7784 212.973 13.9517L211.933 12.6184L211.027 13.3117L209.093 10.6984L213.64 7.25837L219.427 14.9384L217.56 16.2717L216.48 15.9384C216.236 17.1389 215.545 18.2019 214.547 18.9117C210.92 21.5784 208.96 20.4584 204.853 15.0184C200.933 9.81837 200.733 7.01837 204.253 4.35171C206.2 2.88504 208.507 2.28504 210.44 3.53837C211.23 4.14132 211.915 4.87124 212.467 5.69837L208.827 8.44504L208.213 7.64504C207.6 6.81837 206.96 6.79171 206.4 7.20504C205.84 7.61837 205.68 8.25837 206.307 9.08504L211.053 15.3917Z" fill="#58595B"/>
<path d="M214.778 -3.2122L211.136 -0.467285L221.538 13.3313L225.179 10.5864L214.778 -3.2122Z" fill="#58595B"/>
<path d="M185.053 70.085L174.64 56.285L178.747 53.1917C181.693 50.965 183.987 50.8184 186.4 54.0184C188.813 57.2184 188.467 59.0584 185.133 61.5784L184.507 62.0584L188.507 67.3917L185.053 70.085ZM182.56 59.4184C183.733 58.525 184.093 57.925 182.933 56.3917C181.96 55.0584 181.413 55.0584 180.04 56.0717L182.56 59.4184Z" fill="#58595B"/>
<path d="M194.72 62.805L184.307 48.9917L192.2 43.045L194.347 45.8984L190.107 49.0984L191.867 51.445L195.387 48.7917L197.613 51.7517L194.107 54.405L196.12 57.0984L200.587 53.725L202.827 56.685L194.72 62.805Z" fill="#58595B"/>
<path d="M204.827 49.3384C205.44 50.165 206.08 50.2051 206.64 49.7784C207.2 49.3517 207.347 48.725 206.733 47.8984L205.693 46.565L204.787 47.245L202.853 44.6717L207.4 41.245L213.187 48.9117L211.333 50.285L210.253 49.9517C210.015 51.1543 209.322 52.219 208.32 52.925C204.693 55.5917 202.733 54.485 198.627 49.045C194.707 43.8317 194.507 40.9651 198.027 38.3784C199.973 36.9117 202.28 36.3117 204.213 37.5784C205.002 38.1733 205.683 38.8995 206.227 39.7251L202.587 42.3917L202 41.5917C201.387 40.7651 200.747 40.7384 200.187 41.1517C199.627 41.5651 199.467 42.2051 200.093 43.0317L204.827 49.3384Z" fill="#58595B"/>
<path d="M208.536 30.738L204.895 33.4823L215.294 47.2827L218.936 44.5384L208.536 30.738Z" fill="#58595B"/>
<path d="M225.64 39.4984L215.24 25.6984L219.333 22.6051C222.28 20.3784 224.573 20.2184 227 23.4317C229.427 26.6451 229.067 28.4851 225.667 30.9917L225.04 31.4717L229.04 36.8051L225.64 39.4984ZM223.147 28.8984C224.32 28.0184 224.68 27.4051 223.52 25.8717C222.547 24.5384 222 24.5384 220.64 25.5517L223.147 28.8984Z" fill="#58595B"/>
<path d="M235.307 32.2184L224.907 18.4184L232.8 12.4584L234.933 15.3117L230.693 18.5117L232.453 20.8584L235.973 18.2184L238.2 21.1784L234.693 23.8184L236.72 26.5117L241.187 23.1384L243.413 26.1117L235.307 32.2184Z" fill="#58595B"/>
<path d="M245.413 18.7517C246.04 19.5784 246.667 19.6184 247.227 19.1917C247.787 18.7651 247.947 18.1384 247.32 17.3117L246.293 15.9784L245.387 16.6584L243.44 14.0584L248 10.6317L253.773 18.2984L251.907 19.7251L250.84 19.3917C250.598 20.6036 249.901 21.6769 248.893 22.3917C245.28 25.0584 243.307 23.9517 239.213 18.5117C235.333 13.2451 235.08 10.3917 238.6 7.72506C240.547 6.2584 242.853 5.6584 244.787 6.92506C245.579 7.51486 246.265 8.23647 246.813 9.0584L243.173 11.8184L242.573 11.0051C241.947 10.1784 241.24 10.1517 240.747 10.5784C240.253 11.0051 240.04 11.6184 240.667 12.4451L245.413 18.7517Z" fill="#58595B"/>
<path d="M249.129 0.151474L245.488 2.89575L255.887 16.6962L259.529 13.9519L249.129 0.151474Z" fill="#58595B"/>
<path d="M178.813 104.032L168.413 90.2318L172.507 87.1384C175.453 84.9118 177.747 84.7651 180.173 87.9651C182.6 91.1651 182.24 93.0184 178.84 95.5251L178.213 96.0051L182.213 101.338L178.813 104.032ZM176.32 93.3651C177.493 92.4851 177.853 91.8718 176.693 90.3384C175.72 89.0051 175.173 89.0051 173.813 90.0184L176.32 93.3651Z" fill="#58595B"/>
<path d="M188.48 96.7517L178.08 82.9517L185.973 76.9917L188.107 79.845L183.867 83.045L185.627 85.3917L189.147 82.7384L191.373 85.6984L187.867 88.3517L189.893 91.045L194.36 87.6717L196.587 90.645L188.48 96.7517Z" fill="#58595B"/>
<path d="M198.587 83.2851C199.213 84.1117 199.84 84.1517 200.4 83.7251C200.96 83.2984 201.12 82.6717 200.493 81.8451L199.467 80.5117L198.547 81.1917L196.667 78.5917L201.227 75.1651L207 82.8317L205.133 84.2317L204.067 83.8984C203.826 85.1037 203.128 86.1691 202.12 86.8717C198.507 89.5384 196.533 88.4317 192.427 82.9917C188.507 77.7784 188.32 74.9117 191.827 72.2584C193.773 70.7917 196.08 70.2051 198.027 71.4584C198.816 72.0533 199.497 72.7795 200.04 73.6051L196.4 76.3517L195.787 75.5384C195.173 74.7117 194.533 74.6851 193.973 75.1117C193.413 75.5384 193.267 76.1517 193.893 76.9784L198.587 83.2851Z" fill="#58595B"/>
<path d="M202.308 64.687L198.666 67.4313L209.065 81.2317L212.707 78.4874L202.308 64.687Z" fill="#58595B"/>
<path d="M219.4 73.4451L209 59.6451L213.093 56.5518C216.053 54.3251 218.333 54.1784 220.76 57.3784C223.187 60.5784 222.827 62.4318 219.493 64.9384L218.853 65.4184L222.92 70.7518L219.4 73.4451ZM216.92 62.8451C218.093 61.9651 218.453 61.3518 217.293 59.8184C216.307 58.4851 215.76 58.4851 214.4 59.4984L216.92 62.8451Z" fill="#58595B"/>
<path d="M229.067 66.1651L218.667 52.3651L226.56 46.4184L228.707 49.2584L224.453 52.4584L226.227 54.8051L229.733 52.1517L231.96 55.1251L228.453 57.7651L230.48 60.4584L234.947 57.0851L237.173 60.0584L229.067 66.1651Z" fill="#58595B"/>
<path d="M239.173 52.6984C239.8 53.5251 240.44 53.5651 241 53.1384C241.56 52.7118 241.707 52.0851 241.08 51.2584L240.053 49.9251L239.147 50.6051L237.2 48.0051L241.76 44.5784L247.533 52.2451L245.68 53.5784L244.667 53.3118C244.426 54.517 243.728 55.5825 242.72 56.2851C239.107 58.9518 237.133 57.8451 233.04 52.4051C229.107 47.1918 228.92 44.3251 232.427 41.7384C234.387 40.2718 236.693 39.6718 238.627 40.9384C239.421 41.5322 240.106 42.2584 240.653 43.0851L237.013 45.8318L236.4 45.0184C235.773 44.1918 235.147 44.1651 234.573 44.5918C234 45.0184 233.867 45.6318 234.493 46.4584L239.173 52.6984Z" fill="#58595B"/>
<path d="M242.893 34.0898L239.251 36.834L249.658 50.6451L253.3 47.9008L242.893 34.0898Z" fill="#58595B"/>
<path d="M259.987 42.8584L249.587 29.0584L253.693 25.965C256.667 23.725 258.933 23.5917 261.347 26.805C263.76 30.0184 263.413 31.845 260.013 34.3517L259.387 34.8317L263.453 40.165L259.987 42.8584ZM257.507 32.1917C258.68 31.3117 259.04 30.6984 257.88 29.165C256.893 27.8317 256.36 27.8317 254.987 28.845L257.507 32.1917Z" fill="#58595B"/>
<path d="M269.667 35.5784L259.253 21.7784L267.147 15.8184L269.293 18.6717L265.04 21.8717L266.813 24.2184L270.32 21.565L272.547 24.5384L269.04 27.1784L271.067 29.8717L275.533 26.5117L277.76 29.4717L269.667 35.5784Z" fill="#58595B"/>
<path d="M279.76 22.1118C280.387 22.9384 281.093 22.9784 281.587 22.5518C282.08 22.1251 282.293 21.4984 281.667 20.6718L280.64 19.3384L279.733 20.0184L277.787 17.4184L282.347 13.9918L288.133 21.6584L286.253 23.0718L285.187 22.7251C284.947 23.9272 284.255 24.9914 283.253 25.6984C279.627 28.3651 277.667 27.2584 273.56 21.8184C269.64 16.6051 269.44 13.7384 272.947 11.1518C274.907 9.68509 277.213 9.08509 279.147 10.3518C279.937 10.949 280.622 11.6746 281.173 12.4984L277.533 15.1784L276.92 14.3918C276.293 13.5651 275.667 13.5384 275.093 13.9651C274.52 14.3918 274.387 15.0051 275.013 15.8318L279.76 22.1118Z" fill="#58595B"/>
<path d="M283.487 3.50234L279.846 6.24725L290.256 20.0565L293.897 17.3116L283.487 3.50234Z" fill="#58595B"/>
<path d="M300.587 12.2717L290.173 -1.52827L294.28 -4.6216C297.227 -6.83493 299.52 -6.99493 301.947 -3.7816C304.373 -0.568266 304 1.2584 300.667 3.72507L300.027 4.20507L304.027 9.5384L300.587 12.2717ZM298.093 1.67173C299.267 0.791733 299.627 0.1784 298.467 -1.35493C297.48 -2.68827 296.947 -2.68827 295.573 -1.67493L298.093 1.67173Z" fill="#58595B"/>
<path d="M182.24 130.698L171.84 116.898L179.733 110.952L181.88 113.792L177.627 116.992L179.387 119.338L182.907 116.698L185.133 119.658L181.627 122.298L183.653 124.992L188.12 121.632L190.347 124.592L182.24 130.698Z" fill="#58595B"/>
<path d="M192.347 117.232C192.973 118.058 193.68 118.098 194.173 117.672C194.667 117.245 194.88 116.618 194.253 115.805L193.227 114.472L192.32 115.152L190.373 112.538L194.933 109.058L200.667 116.778L198.8 118.192L197.733 117.845C197.493 119.05 196.795 120.116 195.787 120.818C192.213 123.552 190.24 122.392 186.147 116.938C182.213 111.725 182 108.858 185.533 106.205C187.48 104.738 189.787 104.152 191.733 105.405C192.521 106.006 193.205 106.731 193.76 107.552L190.107 110.298L189.507 109.485C188.88 108.672 188.253 108.632 187.68 109.058C187.107 109.485 186.973 110.098 187.6 110.925L192.347 117.232Z" fill="#58595B"/>
<path d="M196.077 98.6453L192.435 101.389L202.832 115.191L206.474 112.448L196.077 98.6453Z" fill="#58595B"/>
<path d="M213.16 107.392L202.76 93.5917L206.867 90.4984C209.813 88.2851 212.107 88.1251 214.52 91.3384C216.933 94.5517 216.587 96.3784 213.253 98.8851L212.627 99.3651L216.627 104.698L213.16 107.392ZM210.68 96.7251C211.853 95.8451 212.213 95.2317 211.053 93.6984C210.067 92.3651 209.52 92.3651 208.16 93.3784L210.68 96.7251Z" fill="#58595B"/>
<path d="M222.827 100.112L212.427 86.3117L220.32 80.3651L222.467 83.2051L218.213 86.4051L219.987 88.7517L223.493 86.1117L225.733 89.0717L222.213 91.7117L224.24 94.4051L228.707 91.0451L230.933 94.0051L222.827 100.112Z" fill="#58595B"/>
<path d="M232.947 86.645C233.56 87.4717 234.2 87.5117 234.76 87.085C235.32 86.6584 235.467 86.0317 234.853 85.205L233.813 83.8717L232.907 84.5517L230.96 81.9784L235.52 78.5517L241.293 86.2184L239.44 87.6317L238.36 87.285C238.12 88.4871 237.428 89.5514 236.427 90.2584C232.8 92.925 230.84 91.8184 226.733 86.3784C222.8 81.165 222.613 78.2984 226.133 75.7117C228.08 74.245 230.387 73.6584 232.32 74.9117C233.114 75.5055 233.799 76.2317 234.347 77.0584L230.707 79.725L230.093 78.9117C229.467 78.0984 228.84 78.0584 228.28 78.485C227.72 78.9117 227.56 79.525 228.187 80.3517L232.947 86.645Z" fill="#58595B"/>
<path d="M236.665 68.0612L233.023 70.8048L243.42 84.607L247.062 81.8634L236.665 68.0612Z" fill="#58595B"/>
<path d="M253.76 76.8051L243.333 63.0051L247.44 59.9117C250.387 57.6984 252.68 57.5384 255.093 60.7517C257.507 63.9651 257.16 65.7917 253.827 68.3117L253.2 68.7784L257.2 74.1117L253.76 76.8051ZM251.267 66.1384C252.44 65.2584 252.8 64.6451 251.64 63.1117C250.667 61.7784 250.12 61.7784 248.747 62.7917L251.267 66.1384Z" fill="#58595B"/>
<path d="M263.427 69.525L253.013 55.725L260.907 49.7784L263.053 52.6184L258.8 55.8317L260.573 58.165L264.08 55.525L266.32 58.485L262.8 61.125L264.827 63.8184L269.293 60.4584L271.533 63.4184L263.427 69.525Z" fill="#58595B"/>
<path d="M273.533 56.0584C274.147 56.8851 274.787 56.9251 275.347 56.4984C275.907 56.0718 276.053 55.4584 275.44 54.6318L274.413 53.2984L273.493 53.9918L271.56 51.4051L276.107 47.9784L281.893 55.6451L280.027 57.0584L278.947 56.7118C278.707 57.9139 278.015 58.9781 277.013 59.6851C273.387 62.3918 271.427 61.2051 267.333 55.7251C263.413 50.5118 263.213 47.6451 266.733 45.0584C268.68 43.5784 270.987 42.9918 272.92 44.2451C273.703 44.8471 274.383 45.5721 274.933 46.3918L271.333 49.1251L270.72 48.3118C270.093 47.4984 269.467 47.4584 268.893 47.8851C268.32 48.3118 268.187 48.9251 268.813 49.7518L273.533 56.0584Z" fill="#58595B"/>
<path d="M277.254 37.477L273.611 40.2206L284.016 54.0335L287.659 51.2899L277.254 37.477Z" fill="#58595B"/>
<path d="M294.347 46.2184L283.933 32.4184L288.04 29.3251C290.987 27.1117 293.28 26.9517 295.707 30.1651C298.133 33.3784 297.773 35.2051 294.373 37.7251L293.747 38.1917L297.747 43.5251L294.347 46.2184ZM291.853 35.6184C293.027 34.7384 293.387 34.1251 292.24 32.5917C291.253 31.2584 290.707 31.2584 289.347 32.2717L291.853 35.6184Z" fill="#58595B"/>
<path d="M304.013 38.9384L293.613 25.1384L301.507 19.1917L303.653 22.0317L299.4 25.2317L301.16 27.5784L304.68 24.9384L306.907 27.8984L303.4 30.5384L305.413 33.2317L309.893 29.8717L312.12 32.8317L304.013 38.9384Z" fill="#58595B"/>
<path d="M314.12 25.4717C314.733 26.2984 315.373 26.3384 315.933 25.9117C316.493 25.4851 316.653 24.8717 316.027 24.0317L315 22.6984L314.08 23.3917L312.147 20.7784L316.667 17.3517L322.48 25.0584L320.667 26.3917L319.6 26.0451C319.35 27.2713 318.633 28.3521 317.6 29.0584C313.987 31.7917 312.013 30.6184 307.92 25.1784C303.92 19.9651 303.8 17.0984 307.307 14.5117C309.253 13.0317 311.56 12.4451 313.493 13.6984C314.289 14.2945 314.979 15.0202 315.533 15.8451L311.88 18.5384L311.333 17.7251C310.707 16.8984 310.067 16.8717 309.507 17.2984C308.947 17.7251 308.8 18.3384 309.427 19.1651L314.12 25.4717Z" fill="#58595B"/>
<path d="M317.84 6.88688L314.198 9.63116L324.597 23.4316L328.239 20.6873L317.84 6.88688Z" fill="#58595B"/>
<path d="M334.933 15.6317L324.533 1.83172L328.667 -1.26161C331.613 -3.47495 333.907 -3.63495 336.333 -0.421614C338.76 2.79172 338.4 4.61838 335 7.13838L334.373 7.60505L338.373 12.9384L334.933 15.6317ZM332.453 5.05838C333.627 4.17838 333.987 3.57839 332.827 2.03172C331.84 0.698385 331.293 0.698385 329.933 1.71172L332.453 5.05838Z" fill="#58595B"/>
<path d="M176 164.645L165.6 150.845L173.493 144.898L175.64 147.738L171.387 150.952L173.16 153.285L176.667 150.645L178.893 153.605L175.387 156.258L177.413 158.938L181.88 155.578L184.107 158.538L176 164.645Z" fill="#58595B"/>
<path d="M186.107 151.192C186.733 152.005 187.44 152.045 187.933 151.618C188.427 151.192 188.64 150.578 188.013 149.752L186.987 148.418L186.08 149.112L184.133 146.485L188.667 143.058L194.44 150.725L192.667 152.138L191.587 151.805C191.342 153.002 190.651 154.06 189.653 154.765C186.027 157.432 184.067 156.325 179.96 150.885C176.027 145.672 175.84 142.805 179.347 140.218C181.307 138.752 183.613 138.152 185.547 139.405C186.337 140.008 187.022 140.738 187.573 141.565L183.933 144.232L183.333 143.445C182.707 142.618 182.08 142.578 181.507 143.005C180.933 143.432 180.8 144.058 181.427 144.872L186.107 151.192Z" fill="#58595B"/>
<path d="M189.827 132.593L186.185 135.337L196.592 149.148L200.234 146.404L189.827 132.593Z" fill="#58595B"/>
<path d="M206.933 141.352L196.52 127.538L200.667 124.458C203.613 122.232 205.907 122.072 208.32 125.285C210.733 128.498 210.4 130.325 207.053 132.845L206.427 133.312L210.427 138.645L206.933 141.352ZM204.44 130.685C205.613 129.805 205.973 129.205 204.813 127.658C203.827 126.325 203.293 126.325 201.92 127.338L204.44 130.685Z" fill="#58595B"/>
<path d="M216.6 134.058L206.187 120.258L214.08 114.312L216.227 117.152L211.973 120.352L213.747 122.698L217.253 120.058L219.493 123.018L215.973 125.672L218 128.352L222.467 124.992L224.707 127.952L216.6 134.058Z" fill="#58595B"/>
<path d="M226.707 120.592C227.32 121.418 227.96 121.458 228.52 121.032C229.08 120.605 229.24 119.992 228.613 119.165L227.573 117.832L226.667 118.525L224.733 115.938L229.28 112.512L235.067 120.178L233.2 121.592L232.133 121.258C231.878 122.454 231.183 123.51 230.187 124.218C226.56 126.885 224.6 125.778 220.493 120.338C216.573 115.125 216.373 112.258 219.893 109.672C221.84 108.205 224.147 107.605 226.08 108.858C226.871 109.456 227.556 110.181 228.107 111.005L224.467 113.752L223.853 112.952C223.24 112.125 222.6 112.085 222.04 112.512C221.48 112.938 221.333 113.565 221.947 114.378L226.707 120.592Z" fill="#58595B"/>
<path d="M230.42 102.006L226.778 104.751L237.185 118.562L240.827 115.817L230.42 102.006Z" fill="#58595B"/>
<path d="M247.52 110.765L237.12 96.9517L241.213 93.8717C244.173 91.6451 246.453 91.4851 248.88 94.6984C251.307 97.9117 250.947 99.7384 247.547 102.258L246.92 102.725L250.92 108.058L247.52 110.765ZM245.04 100.098C246.2 99.2184 246.573 98.6184 245.4 97.0717C244.427 95.7384 243.88 95.7384 242.507 96.7517L245.04 100.098Z" fill="#58595B"/>
<path d="M257.187 103.472L246.787 89.6718L254.68 83.7251L256.827 86.5651L252.573 89.7651L254.333 92.1118L257.84 89.4718L260.08 92.4318L256.573 95.0851L258.6 97.7651L263.067 94.4051L265.293 97.3651L257.187 103.472Z" fill="#58595B"/>
<path d="M267.333 90.005C267.96 90.8317 268.667 90.8717 269.16 90.445C269.653 90.0184 269.867 89.405 269.24 88.5784L268.213 87.245L267.293 87.9384L265.36 85.3517L269.907 81.925L275.693 89.5917L273.827 91.005L272.76 90.6584C272.514 91.8615 271.818 92.9252 270.813 93.6317C267.187 96.365 265.227 95.1917 261.12 89.7517C257.2 84.5384 257.013 81.6717 260.52 79.085C262.467 77.605 264.787 77.0184 266.707 78.2717C267.469 78.8432 268.131 79.5371 268.667 80.325L265.067 83.0717L264.44 82.2717C263.827 81.445 263.187 81.405 262.627 81.8317C262.067 82.2584 261.92 82.8717 262.547 83.6984L267.333 90.005Z" fill="#58595B"/>
<path d="M271.014 71.426L267.372 74.1697L277.769 87.9719L281.411 85.2283L271.014 71.426Z" fill="#58595B"/>
<path d="M288.107 80.1784L277.707 66.3917L281.8 63.3117C284.76 61.0851 287.04 60.9251 289.467 64.1384C291.893 67.3517 291.533 69.1784 288.133 71.6984L287.507 72.1651L291.507 77.4984L288.107 80.1784ZM285.627 69.5117C286.787 68.6317 287.16 68.0317 286 66.4851C285.013 65.1517 284.467 65.1517 283.107 66.1651L285.627 69.5117Z" fill="#58595B"/>
<path d="M297.773 72.8851L287.373 59.0851L295.267 53.1384L297.413 55.9918L293.16 59.1918L294.92 61.5251L298.44 58.8851L300.667 61.8451L297.16 64.4984L299.187 67.1784L303.653 63.8184L305.88 66.7784L297.773 72.8851Z" fill="#58595B"/>
<path d="M307.88 59.4184C308.507 60.2584 309.213 60.2851 309.707 59.8584C310.2 59.4317 310.413 58.8184 309.787 57.9917L308.76 56.6584L307.84 57.3517L305.907 54.7651L310.467 51.3384L316.24 59.0184L314.373 60.4184L313.307 60.0851C313.047 61.275 312.34 62.3201 311.333 63.0051C307.72 65.6717 305.747 64.5651 301.653 59.1251C297.653 53.9117 297.533 51.0451 301.04 48.4584C303 46.9917 305.307 46.3917 307.24 47.6451C308.028 48.246 308.712 48.971 309.267 49.7917L305.627 52.5384L305.013 51.7384C304.387 50.9117 303.68 50.8717 303.187 51.2984C302.693 51.7251 302.48 52.3517 303.107 53.1651L307.88 59.4184Z" fill="#58595B"/>
<path d="M311.607 40.8299L307.965 43.5748L318.375 57.384L322.016 54.6391L311.607 40.8299Z" fill="#58595B"/>
<path d="M328.667 49.5918L318.293 35.7251L322.4 32.6451C325.347 30.4184 327.627 30.2584 330.053 33.4718C332.48 36.6851 332.12 38.5118 328.72 41.0318L328.08 41.4984L332.08 46.8318L328.667 49.5918ZM326.187 38.9251C327.36 38.0451 327.72 37.4451 326.56 35.8984C325.573 34.5651 325.04 34.5651 323.667 35.5784L326.187 38.9251Z" fill="#58595B"/>
<path d="M338.36 42.2984L327.96 28.4984L335.853 22.5518L338 25.3918L333.747 28.6051L335.52 30.9384L339.027 28.2984L341.253 31.2584L337.747 33.9118L339.773 36.5918L344.24 33.2318L346.467 36.1918L338.36 42.2984Z" fill="#58595B"/>
<path d="M348.467 28.8318C349.093 29.6718 349.8 29.6984 350.293 29.2718C350.787 28.8451 351 28.2318 350.373 27.4051L349.347 26.0718L348.44 26.7651L346.493 24.1784L351.053 20.7518L356.84 28.4318L354.96 29.8318L353.893 29.4851C353.653 30.6872 352.961 31.7514 351.96 32.4584C348.333 35.1918 346.36 34.0184 342.267 28.5784C338.347 23.3651 338.147 20.4984 341.653 17.9118C343.613 16.4318 345.92 15.8451 347.853 17.0984C348.641 17.6993 349.325 18.4244 349.88 19.2451L346.24 21.9918L345.627 21.1918C345 20.3651 344.373 20.3251 343.8 20.7518C343.227 21.1784 343.093 21.7918 343.72 22.6184L348.467 28.8318Z" fill="#58595B"/>
<path d="M183.6 166.535L179.959 169.28L190.361 183.079L194.002 180.334L183.6 166.535Z" fill="#58595B"/>
<path d="M200.667 175.298L190.267 161.485L194.387 158.392C197.333 156.165 199.627 156.005 202.053 159.218C204.48 162.432 204.12 164.258 200.72 166.778L200.093 167.258L204.093 172.592L200.667 175.298ZM198.173 164.632C199.347 163.752 199.707 163.152 198.56 161.618C197.573 160.285 197.027 160.285 195.667 161.285L198.173 164.632Z" fill="#58595B"/>
<path d="M210.36 168.005L199.96 154.205L207.853 148.258L209.987 151.112L205.747 154.312L207.507 156.658L211.027 154.005L213.253 156.965L209.747 159.618L211.773 162.312L216.24 158.938L218.467 161.898L210.36 168.005Z" fill="#58595B"/>
<path d="M220.467 154.552C221.093 155.378 221.72 155.418 222.28 154.992C222.84 154.565 223 153.938 222.373 153.112L221.347 151.778L220.44 152.472L218.493 149.898L223.053 146.392L228.827 154.072L226.96 155.405L225.893 155.072C225.65 156.276 224.953 157.34 223.947 158.045C220.333 160.712 218.36 159.592 214.267 154.152C210.333 148.952 210.147 146.152 213.653 143.485C215.6 142.018 217.907 141.418 219.853 142.672C220.64 143.279 221.324 144.008 221.88 144.832L218.227 147.498L217.627 146.698C217 145.872 216.36 145.845 215.8 146.272C215.24 146.698 215.093 147.312 215.72 148.138L220.467 154.552Z" fill="#58595B"/>
<path d="M224.185 135.946L220.544 138.691L230.946 152.49L234.587 149.745L224.185 135.946Z" fill="#58595B"/>
<path d="M241.28 144.712L230.88 130.898L234.973 127.818C237.933 125.592 240.213 125.432 242.64 128.645C245.067 131.858 244.707 133.685 241.307 136.205L240.68 136.685L244.747 142.018L241.28 144.712ZM238.8 134.045C239.973 133.165 240.333 132.565 239.173 131.032C238.187 129.698 237.64 129.698 236.28 130.698L238.8 134.045Z" fill="#58595B"/>
<path d="M250.947 137.418L240.547 123.618L248.44 117.672L250.587 120.525L246.333 123.725L248.107 126.072L251.613 123.418L253.84 126.378L250.333 129.032L252.36 131.725L256.827 128.352L259.053 131.312L250.947 137.418Z" fill="#58595B"/>
<path d="M261.053 123.965C261.68 124.792 262.387 124.818 262.88 124.405C263.373 123.992 263.587 123.352 262.973 122.525L261.933 121.192L261.027 121.885L259.08 119.312L263.64 115.872L269.413 123.552L267.547 124.885L266.48 124.552C266.236 125.752 265.545 126.815 264.547 127.525C260.92 130.192 258.947 129.072 254.853 123.632C250.853 118.432 250.733 115.632 254.253 112.965C256.2 111.498 258.507 110.898 260.44 112.152C261.23 112.755 261.915 113.485 262.467 114.312L258.827 116.978L258.213 116.178C257.587 115.352 256.96 115.325 256.387 115.738C255.813 116.152 255.68 116.792 256.307 117.618L261.053 123.965Z" fill="#58595B"/>
<path d="M264.776 105.358L261.135 108.102L271.534 121.903L275.176 119.159L264.776 105.358Z" fill="#58595B"/>
<path d="M281.867 114.125L271.467 100.325L275.573 97.2317C278.52 95.005 280.813 94.8451 283.227 98.0584C285.64 101.272 285.293 103.098 281.893 105.618L281.267 106.098L285.267 111.432L281.867 114.125ZM279.387 103.458C280.56 102.578 280.92 101.978 279.76 100.445C278.773 99.1117 278.24 99.1117 276.867 100.112L279.387 103.458Z" fill="#58595B"/>
<path d="M291.533 106.832L281.133 93.0318L289.027 87.0851L291.173 89.9384L286.92 93.1384L288.693 95.4718L292.2 92.8318L294.44 95.7918L290.92 98.4451L292.947 101.138L297.413 97.7651L299.64 100.725L291.533 106.832Z" fill="#58595B"/>
<path d="M301.653 93.3784C302.267 94.2051 302.907 94.2317 303.467 93.8051C304.027 93.3784 304.173 92.7651 303.56 91.9384L302.52 90.6051L301.613 91.2984L299.667 88.7251L304.227 85.2851L310 92.9251L308.133 94.3917L307.067 94.0584C306.823 95.259 306.132 96.3219 305.133 97.0317C301.507 99.6984 299.547 98.5784 295.44 93.1517C291.52 87.8717 291.333 85.0584 294.84 82.3917C296.787 80.9251 299.093 80.3251 301.027 81.5918C301.819 82.1815 302.505 82.9032 303.053 83.7251L299.413 86.3917L298.8 85.5784C298.173 84.7517 297.547 84.7117 296.973 85.1384C296.4 85.5651 296.267 86.1917 296.893 87.0184L301.653 93.3784Z" fill="#58595B"/>
<path d="M305.36 74.7621L301.719 77.5077L312.124 91.3045L315.764 88.5589L305.36 74.7621Z" fill="#58595B"/>
<path d="M322.453 83.5384L312.053 69.7384L316.16 66.6451C319.107 64.4317 321.4 64.2584 323.827 67.4717C326.253 70.6851 325.88 72.5117 322.493 75.0317L321.867 75.4984L325.867 80.8317L322.453 83.5384ZM319.973 72.8717C321.147 71.9917 321.507 71.3917 320.347 69.8584C319.373 68.5251 318.827 68.5251 317.453 69.5251L319.973 72.8717Z" fill="#58595B"/>
<path d="M332.133 76.2584L321.733 62.4451L329.613 56.4984L331.76 59.3517L327.52 62.5517L329.28 64.8984L332.787 62.2584L335.027 65.2051L331.52 67.8584L333.533 70.5517L338 67.1784L340.227 70.1384L332.133 76.2584Z" fill="#58595B"/>
<path d="M342.24 62.7917C342.853 63.6184 343.493 63.6451 344.053 63.2317C344.613 62.8184 344.76 62.1784 344.147 61.3517L343.12 60.0184L342.2 60.7117L340.267 58.1384L344.813 54.7117L350.6 62.3917L348.733 63.7251L347.653 63.3917C347.421 64.6041 346.728 65.6793 345.72 66.3917C342.093 69.0584 340.133 67.9384 336.027 62.5117C332.107 57.2984 331.907 54.4317 335.427 51.8451C337.373 50.3784 339.68 49.7784 341.613 51.0451C342.396 51.5989 343.081 52.2793 343.64 53.0584L340 55.8584L339.387 55.0451C338.773 54.2184 338.133 54.1917 337.573 54.6051C337.013 55.0184 336.853 55.6584 337.48 56.4851L342.24 62.7917Z" fill="#58595B"/>
<path d="M235.04 178.658L224.667 164.858L228.773 161.765C231.72 159.552 234.013 159.392 236.427 162.592C238.84 165.792 238.493 167.645 235.16 170.152L234.52 170.632L238.587 175.965L235.04 178.658ZM232.56 167.992C233.733 167.112 234.093 166.498 232.933 164.965C231.947 163.632 231.4 163.632 230.04 164.645L232.56 167.992Z" fill="#58595B"/>
<path d="M244.707 171.378L234.307 157.578L242.2 151.618L244.347 154.472L240.093 157.672L241.867 160.018L245.373 157.378L247.6 160.338L244.093 162.978L246.12 165.672L250.587 162.298L252.813 165.272L244.707 171.378Z" fill="#58595B"/>
<path d="M254.813 157.912C255.44 158.738 256.147 158.778 256.64 158.352C257.133 157.925 257.347 157.298 256.72 156.472L255.693 155.138L254.787 155.818L252.84 153.245L257.4 149.818L263.173 157.485L261.32 158.818L260.24 158.485C259.999 159.69 259.302 160.756 258.293 161.458C254.68 164.125 252.707 163.018 248.613 157.578C244.613 152.365 244.493 149.498 248 146.912C249.96 145.445 252.267 144.858 254.2 146.112C254.994 146.706 255.679 147.432 256.227 148.258L252.587 151.005L251.973 150.192C251.347 149.365 250.72 149.338 250.147 149.765C249.573 150.192 249.44 150.805 250.067 151.632L254.813 157.912Z" fill="#58595B"/>
<path d="M258.542 139.304L254.901 142.049L265.3 155.849L268.942 153.105L258.542 139.304Z" fill="#58595B"/>
<path d="M275.627 148.072L265.227 134.272L269.333 131.178C272.28 128.952 274.573 128.792 276.987 132.005C279.4 135.218 279.053 137.058 275.72 139.565L275.08 140.045L279.08 145.378L275.627 148.072ZM273.147 137.405C274.32 136.525 274.68 135.912 273.52 134.378C272.533 133.045 271.987 133.045 270.627 134.058L273.147 137.405Z" fill="#58595B"/>
<path d="M285.293 140.792L274.893 126.992L282.787 121.032L284.933 123.885L280.68 127.085L282.453 129.432L285.96 126.792L288.2 129.752L284.68 132.392L286.707 135.085L291.173 131.712L293.413 134.685L285.293 140.792Z" fill="#58595B"/>
<path d="M295.413 127.325C296.027 128.152 296.667 128.192 297.227 127.765C297.787 127.338 297.947 126.712 297.32 125.885L296.28 124.552L295.373 125.232L293.44 122.658L298 119.205L303.773 126.872L301.92 128.205L300.84 127.872C300.596 129.072 299.905 130.135 298.907 130.845C295.28 133.512 293.32 132.405 289.213 126.965C285.213 121.752 285.093 118.885 288.613 116.298C290.56 114.832 292.867 114.232 294.8 115.498C295.594 116.092 296.279 116.818 296.827 117.645L293.173 120.392L292.56 119.578C291.947 118.752 291.307 118.725 290.747 119.152C290.187 119.578 290.027 120.192 290.653 121.018L295.413 127.325Z" fill="#58595B"/>
<path d="M299.13 108.743L295.487 111.486L305.884 125.288L309.526 122.545L299.13 108.743Z" fill="#58595B"/>
<path d="M316.227 117.485L305.827 103.725L309.92 100.632C312.867 98.4184 315.16 98.2451 317.573 101.458C319.987 104.672 319.653 106.512 316.24 109.018L315.613 109.498L319.613 114.832L316.227 117.485ZM313.747 106.885C314.907 106.005 315.267 105.392 314.107 103.858C313.133 102.525 312.587 102.525 311.213 103.538L313.747 106.885Z" fill="#58595B"/>
<path d="M325.893 110.205L315.48 96.4051L323.373 90.4451L325.52 93.2984L321.267 96.4984L323.04 98.8451L326.56 96.2051L328.787 99.1651L325.267 101.805L327.293 104.498L331.76 101.125L334 104.098L325.893 110.205Z" fill="#58595B"/>
<path d="M336 96.7384C336.627 97.565 337.253 97.605 337.813 97.1784C338.373 96.7517 338.533 96.125 337.907 95.2984L336.867 93.965L335.96 94.645L334 92.045L338.547 88.6184L344.333 96.285L342.467 97.6984L341.4 97.3517C341.149 98.5528 340.454 99.6148 339.453 100.325C335.827 102.992 333.867 101.885 329.76 96.445C325.84 91.2317 325.64 88.365 329.16 85.7117C331.107 84.245 333.413 83.6584 335.347 84.9117C336.141 85.5055 336.826 86.2317 337.373 87.0584L333.733 89.805L333.12 88.9917C332.507 88.165 331.867 88.1384 331.307 88.565C330.747 88.9917 330.6 89.605 331.227 90.4317L336 96.7384Z" fill="#58595B"/>
<path d="M339.71 78.1478L336.068 80.8914L346.464 94.6937L350.107 91.95L339.71 78.1478Z" fill="#58595B"/>
<path d="M269.4 182.018L258.987 168.218L263.093 165.125C266.04 162.912 268.333 162.752 270.747 165.965C273.16 169.178 272.827 171.005 269.413 173.512L268.787 173.992L272.787 179.325L269.4 182.018ZM266.907 171.352C268.08 170.472 268.44 169.858 267.28 168.325C266.293 166.992 265.76 166.992 264.387 168.005L266.907 171.352Z" fill="#58595B"/>
<path d="M279.067 174.738L268.667 160.938L276.56 154.992L278.693 157.832L274.453 161.032L276.213 163.378L279.733 160.725L281.96 163.698L278.453 166.338L280.467 169.032L284.947 165.672L287.173 168.632L279.067 174.738Z" fill="#58595B"/>
<path d="M289.173 161.272C289.787 162.098 290.427 162.138 290.987 161.712C291.547 161.285 291.707 160.658 291.08 159.832L290.04 158.498L289.133 159.178L287.2 156.605L291.747 153.178L297.533 160.845L295.667 162.258L294.6 161.912C294.351 163.103 293.66 164.156 292.667 164.858C289.053 167.592 287.08 166.418 282.987 160.978C278.987 155.765 278.853 152.898 282.373 150.312C284.32 148.832 286.627 148.245 288.56 149.498C289.351 150.096 290.036 150.821 290.587 151.645L286.933 154.392L286.333 153.578C285.707 152.752 285 152.725 284.507 153.152C284.013 153.578 283.8 154.192 284.413 155.018L289.173 161.272Z" fill="#58595B"/>
<path d="M292.89 142.692L289.248 145.435L299.645 159.238L303.287 156.494L292.89 142.692Z" fill="#58595B"/>
<path d="M310 151.432L299.6 137.632L303.693 134.538C306.64 132.325 308.933 132.165 311.347 135.378C313.76 138.592 313.427 140.418 310.013 142.925L309.387 143.405L313.387 148.738L310 151.432ZM307.52 140.765C308.68 139.885 309.053 139.272 307.88 137.738C306.907 136.405 306.36 136.405 304.987 137.418L307.52 140.765Z" fill="#58595B"/>
<path d="M319.653 144.152L309.253 130.352L317.147 124.405L319.28 127.245L315.04 130.445L316.8 132.792L320.32 130.152L322.547 133.112L319.04 135.752L321.067 138.445L325.533 135.085L327.76 138.045L319.653 144.152Z" fill="#58595B"/>
<path d="M329.76 130.685C330.387 131.512 331.093 131.552 331.587 131.125C332.08 130.698 332.293 130.085 331.667 129.245L330.64 127.912L329.733 128.605L327.787 126.018L332.347 122.592L338.12 130.258L336.253 131.672L335.187 131.325C334.946 132.53 334.248 133.596 333.24 134.298C329.627 136.965 327.653 135.858 323.56 130.418C319.56 125.205 319.427 122.338 322.947 119.752C324.893 118.285 327.2 117.698 329.147 118.952C329.932 119.535 330.613 120.247 331.16 121.058L327.52 123.725L326.92 122.912C326.293 122.085 325.587 122.058 325.093 122.485C324.6 122.912 324.387 123.525 325.013 124.352L329.76 130.685Z" fill="#58595B"/>
<path d="M333.474 112.096L329.833 114.841L340.242 128.65L343.884 125.905L333.474 112.096Z" fill="#58595B"/>
<path d="M350.573 120.845L340.173 107.045L344.267 103.952C347.227 101.738 349.52 101.578 351.933 104.792C354.347 108.005 354 109.832 350.6 112.338L349.96 112.818L353.96 118.152L350.573 120.845ZM348.093 110.178C349.253 109.298 349.627 108.685 348.467 107.152C347.48 105.818 346.933 105.818 345.573 106.832L348.093 110.178Z" fill="#58595B"/>
<path d="M306.107 183.618L295.707 169.805L299.8 166.725C302.747 164.498 305.04 164.338 307.453 167.552C309.867 170.765 309.533 172.592 306.12 175.112L305.493 175.578L309.493 180.912L306.107 183.618ZM303.613 172.952C304.787 172.072 305.147 171.472 303.987 169.938C303 168.605 302.467 168.605 301.093 169.605L303.613 172.952Z" fill="#58595B"/>
<path d="M315.773 176.325L305.36 162.525L313.253 156.578L315.4 159.418L311.16 162.618L312.92 164.978L316.44 162.325L318.667 165.285L315.16 167.938L317.173 170.618L321.64 167.258L323.88 170.218L315.773 176.325Z" fill="#58595B"/>
<path d="M325.88 162.872C326.493 163.698 327.133 163.725 327.693 163.298C328.253 162.872 328.413 162.258 327.787 161.432L326.747 160.098L325.84 160.792L323.907 158.218L328.467 154.778L334.24 162.445L332.373 163.858L331.307 163.512C331.056 164.713 330.361 165.775 329.36 166.485C325.747 169.152 323.773 168.045 319.667 162.605C315.747 157.392 315.547 154.525 319.067 151.938C321.013 150.472 323.32 149.872 325.253 151.125C326.055 151.695 326.758 152.394 327.333 153.192L323.693 155.925L323.08 155.125C322.467 154.298 321.827 154.258 321.267 154.685C320.707 155.112 320.56 155.738 321.173 156.565L325.88 162.872Z" fill="#58595B"/>
<path d="M329.596 144.269L325.954 147.014L336.356 160.813L339.997 158.068L329.596 144.269Z" fill="#58595B"/>
<path d="M346.693 153.058L336.293 139.258L340.387 136.178C343.347 133.952 345.627 133.792 348.04 137.005C350.453 140.218 350.12 142.045 346.707 144.565L346.08 145.032L350.08 150.365L346.693 153.058ZM344.213 142.392C345.373 141.512 345.747 140.912 344.573 139.378C343.6 138.045 343.053 138.045 341.693 139.045L344.213 142.392Z" fill="#58595B"/>
<path d="M334.32 74.0317L320.547 32.6984C320.142 31.4628 319.498 30.3191 318.651 29.333C317.803 28.3468 316.77 27.5376 315.609 26.9517C314.448 26.3658 313.184 26.0148 311.887 25.9187C310.59 25.8226 309.288 25.9834 308.053 26.3917L240.573 49.7117C238.319 50.4539 236.406 51.9806 235.183 54.014C233.959 56.0475 233.507 58.4526 233.907 60.7917L232.72 60.9784C229.101 61.5968 225.664 63.0107 222.657 65.1181C219.651 67.2256 217.149 69.9739 215.333 73.1651L191.227 115.192C191.008 115.536 190.861 115.921 190.795 116.323C190.729 116.726 190.746 117.137 190.844 117.533C190.941 117.929 191.119 118.301 191.364 118.626C191.61 118.952 191.92 119.224 192.274 119.426C192.628 119.628 193.019 119.757 193.424 119.803C193.83 119.85 194.24 119.814 194.631 119.697C195.021 119.581 195.384 119.386 195.698 119.125C196.011 118.864 196.268 118.542 196.453 118.178L220.573 76.1117C221.961 73.6948 223.869 71.6167 226.159 70.0279C228.449 68.439 231.063 67.3792 233.813 66.9251C234.467 66.8051 235.147 66.7117 235.787 66.6051L244.48 92.7117C242.105 94.2745 239.487 95.4324 236.733 96.1384C236.339 96.2297 235.967 96.3992 235.639 96.6368C235.312 96.8744 235.035 97.1753 234.825 97.5218C234.616 97.8682 234.478 98.2531 234.42 98.6537C234.362 99.0543 234.385 99.4625 234.488 99.8541C234.591 100.246 234.771 100.613 235.018 100.933C235.265 101.254 235.573 101.522 235.926 101.721C236.278 101.921 236.667 102.047 237.069 102.094C237.471 102.14 237.878 102.106 238.267 101.992C241.137 101.247 243.888 100.102 246.44 98.5917V98.5917C247.013 98.3037 247.554 97.955 248.053 97.5517C248.64 97.1517 249.213 96.7384 249.773 96.2984L251.107 95.2317L264.2 85.1384C265.321 84.4341 266.663 84.1716 267.966 84.402C269.27 84.6323 270.441 85.339 271.252 86.3847C272.063 87.4304 272.457 88.7403 272.356 90.06C272.255 91.3796 271.667 92.6147 270.707 93.5251L259.787 102.152C255.432 105.581 252.185 110.219 250.453 115.485C249.299 119.015 247.273 122.196 244.562 124.734C241.852 127.272 238.544 129.085 234.947 130.005L234.013 130.258C230.28 131.222 226.782 132.937 223.733 135.298C223.158 135.81 222.799 136.521 222.73 137.287C222.661 138.054 222.886 138.818 223.36 139.424C223.833 140.031 224.52 140.434 225.281 140.551C226.041 140.669 226.818 140.493 227.453 140.058C229.845 138.179 232.601 136.817 235.547 136.058L236.48 135.805C241.759 134.44 246.526 131.568 250.2 127.538L254.2 121.845L254.76 120.778C256.187 121.731 257.851 122.267 259.566 122.326C261.281 122.385 262.978 121.964 264.467 121.112C265.797 120.286 266.908 119.152 267.707 117.805C269.907 118.866 272.438 119.011 274.745 118.209C277.052 117.406 278.946 115.722 280.013 113.525C280.12 113.298 280.213 113.072 280.307 112.832C282.145 113.225 284.055 113.1 285.827 112.472C291.16 110.885 290.307 104.472 289.133 100.285L328.067 86.5251C330.552 85.6974 332.608 83.9162 333.78 81.5733C334.953 79.2304 335.147 76.5177 334.32 74.0317V74.0317ZM242.32 54.9651L309.8 31.7251C310.888 31.3532 312.078 31.4244 313.114 31.9235C314.149 32.4225 314.947 33.3092 315.333 34.3917L316.267 37.2051L258 57.4451L257.667 57.5517L240.48 63.2851L239.533 60.4717C239.17 59.3755 239.257 58.18 239.775 57.1476C240.292 56.1153 241.198 55.3303 242.293 54.9651H242.32ZM261.093 116.178C260.413 116.509 259.643 116.61 258.9 116.466C258.157 116.322 257.481 115.94 256.973 115.378C257.213 114.818 257.48 114.272 257.773 113.738L260.733 109.738L262.067 109.298L262.92 111.872C263.189 112.682 263.153 113.562 262.819 114.347C262.485 115.133 261.876 115.77 261.107 116.138L261.093 116.178ZM272.107 112.658C271.394 112.731 270.677 112.562 270.072 112.177C269.467 111.793 269.01 111.215 268.773 110.538C268.773 110.352 268.667 110.165 268.613 109.978L267.76 107.405L273.933 105.338L274.96 109.152C275.004 109.57 274.965 109.992 274.846 110.395C274.726 110.798 274.528 111.173 274.263 111.499C273.998 111.825 273.671 112.095 273.301 112.294C272.931 112.493 272.525 112.617 272.107 112.658V112.658ZM283.8 107.485C283.225 107.752 282.577 107.82 281.958 107.677C281.34 107.535 280.787 107.19 280.387 106.698L279.267 103.565L284.6 101.805C285.507 104.072 286.067 106.672 283.827 107.485H283.8ZM326.36 81.2317L272.213 100.112L274.533 98.2984C276.903 96.4596 278.444 93.7549 278.819 90.7793C279.194 87.8037 278.372 84.801 276.533 82.4317C274.694 80.0625 271.99 78.5207 269.014 78.1456C266.039 77.7706 263.036 78.5929 260.667 80.4317L253.88 85.6451C253.88 85.6451 251.147 87.2184 248.853 88.8051L244.587 76.8051L320.307 50.7517L329.067 75.7251C329.248 76.2661 329.321 76.8376 329.281 77.4069C329.242 77.9761 329.09 78.5319 328.835 79.0424C328.579 79.5528 328.226 80.0078 327.794 80.3812C327.363 80.7546 326.862 81.0391 326.32 81.2184" fill="white"/>
<path d="M185.2 13.5917H338.8V167.192H185.2V13.5917ZM182 170.392H342V10.3917H182V170.392Z" fill="#231F20"/>
<path d="M342 144.792H182V170.392H342V144.792Z" fill="#231F20"/>
<path d="M325.28 16.7917V17.9784H322.76V25.9784H321.267V17.9784H318.733V16.7917H325.28ZM335.6 25.9917H334.107V18.7517L331.56 25.9917H330.347L327.92 18.7517V25.9917H326.427V16.7917H328.667L330.947 23.6451L333.173 16.7917H335.493L335.6 25.9917Z" fill="white"/>
<path d="M197.707 149.058H194.213V165.858H197.707V149.058Z" fill="white"/>
<path d="M204.56 149.058H207.853V165.858H204.107L202.173 155.512H202.133V165.858H198.947V149.058H202.747L204.533 159.325H204.56V149.058Z" fill="white"/>
<path d="M214.2 153.912C214.2 153.178 214.2 151.845 213.493 151.845C212.587 151.845 212.547 152.685 212.547 157.458C212.547 162.232 212.64 163.085 213.493 163.085C214.053 163.085 214.28 162.338 214.28 160.245V158.912H217.667V159.978C217.667 163.978 216.507 166.165 213.44 166.165C208.947 166.165 208.947 162.805 208.947 157.432C208.947 152.058 208.947 148.698 213.44 148.698C217.16 148.698 217.6 151.365 217.6 154.032V155.258H214.2V153.912Z" fill="white"/>
<path d="M218.64 149.058H222.133V162.058H225.947V165.858H218.64V149.058Z" fill="white"/>
<path d="M231.72 149.058H235.213V160.165C235.213 164.165 234.013 166.192 230.907 166.192C227.507 166.192 226.613 164.338 226.613 160.165V149.058H230.107V161.058C230.107 162.498 230.253 163.085 230.907 163.085C231.56 163.085 231.72 162.498 231.72 161.058V149.058Z" fill="white"/>
<path d="M241.573 149.058H245.36L242.213 159.258V165.858H238.72V159.258L235.573 149.058H239.453L240.453 154.925H240.493L241.573 149.058Z" fill="white"/>
<path d="M245.84 149.058H253.36V152.872H249.347V155.458H253.107V159.125H249.347V162.058H253.52V165.858H245.84V149.058Z" fill="white"/>
<path d="M264.067 153.912C264.067 153.178 264.067 151.845 263.36 151.845C262.44 151.845 262.413 152.685 262.413 157.458C262.413 162.232 262.507 163.085 263.36 163.085C263.92 163.085 264.147 162.338 264.147 160.245V158.912H267.533V159.978C267.533 163.978 266.36 166.165 263.307 166.165C258.813 166.165 258.813 162.805 258.813 157.432C258.813 152.058 258.813 148.698 263.307 148.698C267.027 148.698 267.467 151.365 267.467 154.032V155.258H264.067V153.912Z" fill="white"/>
<path d="M272.667 148.725C277.147 148.725 277.147 152.258 277.147 157.458C277.147 162.658 277.147 166.192 272.667 166.192C268.187 166.192 268.173 162.832 268.173 157.458C268.173 152.085 268.173 148.725 272.667 148.725ZM272.667 151.845C271.907 151.845 271.773 152.552 271.773 157.458C271.773 162.365 271.907 163.085 272.667 163.085C273.427 163.085 273.547 162.378 273.547 157.458C273.547 152.538 273.413 151.845 272.667 151.845Z" fill="white"/>
<path d="M278.227 149.058H283.293L284.32 159.352H284.36L285.493 149.058H290.453V165.858H287.173V153.632H287.133L285.6 165.858H283.08L281.547 153.632H281.507V165.858H278.227V149.058Z" fill="white"/>
<path d="M291.813 149.058H296.453C299.12 149.058 300.453 150.592 300.453 154.285C300.453 157.978 298.693 159.538 296.333 159.538H295.333V165.858H291.813V149.058ZM295.333 156.138H295.72C296.373 156.138 296.92 155.978 296.92 154.285C296.92 153.138 296.613 152.445 295.72 152.445H295.333V156.138Z" fill="white"/>
<path d="M301.533 149.058H306.773C309.187 149.058 310.213 150.658 310.213 153.458C310.213 156.258 309.36 157.272 308.133 157.458C308.506 157.508 308.858 157.658 309.152 157.893C309.446 158.128 309.67 158.439 309.8 158.792C310.075 159.721 310.188 160.691 310.133 161.658V162.992C310.106 163.658 310.16 164.325 310.293 164.978C310.352 165.18 310.479 165.355 310.653 165.472V165.698H306.947C306.726 164.914 306.64 164.098 306.693 163.285C306.693 162.458 306.693 161.605 306.693 160.778C306.693 159.352 306.333 159.098 305.733 159.098H305.08V165.698H301.533V149.058ZM305.027 156.138H305.533C306.107 156.138 306.72 155.792 306.72 154.165C306.72 152.832 306.213 152.445 305.387 152.445H304.987L305.027 156.138Z" fill="white"/>
<path d="M317.04 163.298H314.707L314.36 165.858H310.76L313.707 149.058H318.093L321.027 165.858H317.427L317.04 163.298ZM315.907 152.738L315.093 159.618H316.667L315.907 152.738Z" fill="white"/>
<path d="M326.373 153.205C326.373 152.498 326.147 151.872 325.56 151.872C324.973 151.872 324.747 152.472 324.747 153.205C324.747 156.552 329.96 154.832 329.96 160.832C329.96 164.738 328.627 166.285 325.373 166.285C322.707 166.285 321.24 165.058 321.24 161.365V160.925H324.667V161.698C324.667 162.525 324.933 163.178 325.547 163.178C326.16 163.178 326.4 162.432 326.4 161.698C326.455 161.378 326.413 161.048 326.28 160.752C326.147 160.455 325.929 160.204 325.653 160.032C325.173 159.672 324.547 159.352 323.92 158.925C323.069 158.496 322.37 157.816 321.919 156.976C321.469 156.136 321.287 155.178 321.4 154.232C321.4 151.912 321.92 150.632 322.733 149.858C323.507 149.153 324.527 148.78 325.573 148.818C329.107 148.818 329.707 151.178 329.707 153.978H326.413L326.373 153.205Z" fill="white"/>
</g>
<path d="M22.7889 209.631L22.4867 209.815C22.0501 210.084 21.4512 210.218 20.6901 210.218C19.7274 210.218 18.9606 209.815 18.3897 209.009C17.9083 208.338 17.5613 207.375 17.3486 206.121C17.1807 205.136 17.0968 204.017 17.0968 202.763C17.0968 200.86 17.343 199.259 17.8356 197.961C18.4624 196.315 19.3915 195.493 20.6229 195.493C20.802 195.493 20.9419 195.493 21.0427 195.493C21.3785 195.493 21.6415 195.509 21.8318 195.543C22.0333 195.565 22.2628 195.644 22.5203 195.778L22.7553 195.879V197.323L22.4363 197.172C21.9886 196.925 21.4904 196.802 20.9419 196.802C20.024 196.802 19.3636 197.485 18.9606 198.851C18.6583 199.869 18.5072 201.174 18.5072 202.763C18.5072 204.465 18.6192 205.752 18.843 206.625C19.1901 207.979 19.8449 208.741 20.8076 208.909C20.8412 208.92 20.9083 208.925 21.0091 208.925C21.233 208.925 21.4624 208.897 21.6975 208.841C21.9326 208.774 22.1565 208.668 22.3692 208.522L22.7889 208.237V209.631ZM29.9863 205.047C29.9863 206.457 29.8183 207.593 29.4825 208.455C29.0236 209.619 28.2792 210.201 27.2493 210.201C26.1635 210.201 25.3855 209.642 24.9154 208.522C24.5572 207.672 24.378 206.541 24.378 205.131C24.378 203.731 24.5572 202.606 24.9154 201.756C25.3855 200.636 26.1355 200.076 27.1654 200.076C28.0161 200.076 28.671 200.401 29.1299 201.05C29.7008 201.856 29.9863 203.188 29.9863 205.047ZM28.6766 205.047C28.6766 203.95 28.6038 203.127 28.4583 202.578C28.2232 201.705 27.7978 201.269 27.1822 201.269C26.6224 201.269 26.2139 201.716 25.9564 202.612C25.7661 203.272 25.671 204.129 25.671 205.181C25.671 206.591 25.8165 207.599 26.1075 208.203C26.365 208.729 26.7288 208.993 27.1989 208.993C27.781 208.993 28.1896 208.539 28.4247 207.632C28.5926 206.994 28.6766 206.132 28.6766 205.047ZM40.637 210H39.3945V203.216C39.3945 203.071 39.3945 202.959 39.3945 202.881C39.3945 202.354 39.3497 201.974 39.2602 201.739C39.1258 201.381 38.8572 201.168 38.4542 201.101C38.4094 201.09 38.3702 201.084 38.3367 201.084C38.2807 201.084 38.2415 201.084 38.2191 201.084C37.7154 201.084 37.346 201.381 37.1109 201.974C36.9206 202.455 36.8255 203.037 36.8255 203.72V210H35.5829V203.72C35.5829 203.619 35.5829 203.513 35.5829 203.401C35.5829 203.278 35.5885 203.149 35.5997 203.015C35.5997 202.5 35.5549 202.108 35.4654 201.84C35.3311 201.425 35.0848 201.179 34.7266 201.101C34.5922 201.078 34.5027 201.067 34.4579 201.067C33.9878 201.067 33.6184 201.347 33.3497 201.907C33.1258 202.377 33.0139 202.937 33.0139 203.586V210H31.7546V200.228H33.0139V201L33.1482 200.882C33.3161 200.737 33.4672 200.614 33.6016 200.513C33.8143 200.356 33.9822 200.256 34.1053 200.211C34.2284 200.155 34.3572 200.116 34.4915 200.093C34.6258 200.071 34.7602 200.06 34.8945 200.06C35.2303 200.06 35.527 200.116 35.7844 200.228C35.9523 200.306 36.109 200.418 36.2546 200.563C36.3665 200.675 36.4728 200.81 36.5736 200.966L36.6743 201.151L36.7919 201.034C36.915 200.91 37.0437 200.782 37.1781 200.647C37.402 200.446 37.609 200.306 37.7993 200.228C38.0568 200.116 38.3478 200.06 38.6725 200.06C38.9523 200.06 39.2098 200.099 39.4449 200.177C39.6911 200.256 39.8758 200.356 39.999 200.479C40.2788 200.759 40.4635 201.157 40.5531 201.672C40.609 202.007 40.637 202.522 40.637 203.216V210ZM47.7648 205.131C47.7648 206.586 47.6473 207.672 47.4122 208.388C47.0428 209.507 46.3712 210.067 45.3973 210.067C45.1174 210.067 44.8824 210.034 44.6921 209.966C44.5018 209.888 44.3171 209.754 44.138 209.563L43.8525 209.278V213.677H42.61V200.228H43.8861V200.882L44.0876 200.647C44.2667 200.446 44.4738 200.289 44.7089 200.177C44.9551 200.065 45.1566 200.004 45.3133 199.993C45.47 199.97 45.61 199.959 45.7331 199.959C46.5727 199.959 47.1492 200.558 47.4626 201.756C47.6641 202.539 47.7648 203.664 47.7648 205.131ZM46.4719 205.198C46.4719 203.765 46.3992 202.757 46.2536 202.175C46.0521 201.381 45.6715 200.983 45.1118 200.983C44.3842 200.983 43.9533 201.716 43.8189 203.183C43.7742 203.664 43.7518 204.358 43.7518 205.265C43.7518 206.507 43.7965 207.336 43.8861 207.75C44.0764 208.623 44.4962 209.06 45.1454 209.06C45.6715 209.06 46.0409 208.618 46.2536 207.733C46.3992 207.118 46.4719 206.272 46.4719 205.198ZM52.475 201.554L52.2903 201.521C52.1336 201.498 51.9768 201.509 51.8201 201.554C51.6746 201.599 51.5123 201.694 51.3332 201.84C51.1653 201.974 51.0253 202.259 50.9134 202.696C50.8015 203.132 50.7455 203.642 50.7455 204.224V210H49.4862V200.228H50.7455V201.487L50.8462 201.369C51.0253 201.101 51.21 200.832 51.4003 200.563C51.5235 200.418 51.6578 200.312 51.8033 200.244C51.9489 200.166 52.1 200.116 52.2567 200.093L52.475 200.06V201.554ZM59.1481 210H57.872V209.228L57.6537 209.463C57.497 209.664 57.2899 209.826 57.0324 209.95C56.7862 210.062 56.5847 210.129 56.428 210.151C56.2824 210.174 56.1537 210.185 56.0418 210.185C55.1798 210.185 54.5921 209.586 54.2787 208.388C54.0772 207.616 53.9765 206.479 53.9765 204.979C53.9765 203.535 54.094 202.455 54.3291 201.739C54.6985 200.619 55.3757 200.06 56.3608 200.06C56.6406 200.06 56.8701 200.093 57.0492 200.16C57.2395 200.228 57.4298 200.362 57.6201 200.563L57.8888 200.849V200.228H59.1481V210ZM57.9895 204.862C57.9895 204.593 57.9895 204.392 57.9895 204.257C57.9895 203.272 57.9224 202.556 57.788 202.108C57.5753 201.414 57.1836 201.067 56.6127 201.067C56.2097 201.067 55.8962 201.336 55.6724 201.873C55.4037 202.522 55.2694 203.541 55.2694 204.929C55.2694 206.373 55.3421 207.381 55.4877 207.951C55.6891 208.746 56.0753 209.144 56.6462 209.144C57.3627 209.144 57.788 208.41 57.9224 206.944C57.9671 206.463 57.9895 205.769 57.9895 204.862ZM65.3694 206.558C65.4366 206.815 65.4702 207.073 65.4702 207.33C65.4702 208.035 65.2631 208.662 64.8489 209.211C64.4347 209.748 63.8862 210.056 63.2034 210.134C63.125 210.146 63.0523 210.151 62.9851 210.151C62.9291 210.151 62.89 210.151 62.8676 210.151C62.5989 210.151 62.3359 210.106 62.0784 210.017C61.8209 209.927 61.5579 209.804 61.2892 209.647L61.0206 209.479V208.035L61.2388 208.22C61.5971 208.511 61.8265 208.685 61.9273 208.741C62.1847 208.897 62.4534 208.976 62.7333 208.976C63.1698 208.976 63.5168 208.841 63.7743 208.573C64.043 208.304 64.1773 207.912 64.1773 207.397C64.1773 207.017 64.0262 206.642 63.7239 206.272C63.6008 206.127 63.3153 205.841 62.8676 205.416L62.6325 205.198C62.1064 204.716 61.7762 204.392 61.6418 204.224C61.2724 203.765 61.0877 203.295 61.0877 202.813C61.0877 202.108 61.2444 201.515 61.5579 201.034C61.9161 200.485 62.4254 200.172 63.0859 200.093C63.1642 200.082 63.2762 200.076 63.4217 200.076C63.7127 200.076 63.9758 200.116 64.2109 200.194C64.4571 200.261 64.6978 200.362 64.9329 200.496L65.2015 200.647V202.259L64.9665 202.024C64.6866 201.744 64.4795 201.56 64.3452 201.47C64.1101 201.313 63.8583 201.235 63.5896 201.235C63.209 201.235 62.9068 201.347 62.6829 201.571C62.459 201.795 62.3471 202.069 62.3471 202.394C62.3471 202.841 62.4926 203.25 62.7836 203.619C62.9403 203.81 63.237 204.095 63.6736 204.476L63.8918 204.66C64.3508 205.063 64.653 205.349 64.7986 205.517C65.0672 205.83 65.2575 206.177 65.3694 206.558ZM76.7758 210H75.4997V209.228L75.2814 209.463C75.1135 209.664 74.912 209.826 74.6769 209.95C74.4419 210.062 74.2404 210.129 74.0725 210.151C73.9157 210.174 73.7814 210.185 73.6695 210.185C72.8075 210.185 72.2198 209.586 71.9064 208.388C71.7049 207.616 71.6042 206.479 71.6042 204.979C71.6042 203.535 71.7217 202.455 71.9568 201.739C72.3262 200.619 73.0034 200.06 73.9885 200.06C74.2684 200.06 74.4978 200.093 74.6769 200.16C74.8672 200.228 75.0575 200.362 75.2478 200.563L75.5165 200.849V194.771H76.759L76.7758 210ZM75.6172 204.862C75.6172 204.593 75.6172 204.392 75.6172 204.257C75.6172 203.272 75.5501 202.556 75.4157 202.108C75.2031 201.414 74.8113 201.067 74.2404 201.067C73.8374 201.067 73.5239 201.336 73.3001 201.873C73.0314 202.522 72.8971 203.541 72.8971 204.929C72.8971 206.373 72.9698 207.381 73.1154 207.951C73.3169 208.746 73.7031 209.144 74.2739 209.144C74.9904 209.144 75.4157 208.41 75.5501 206.944C75.5948 206.463 75.6172 205.769 75.6172 204.862ZM83.8871 204.845L83.8703 205.45H79.8069V205.618C79.8069 206.916 79.9468 207.823 80.2266 208.338C80.4729 208.797 80.8367 209.026 81.3181 209.026C81.6987 209.026 81.9897 208.825 82.1912 208.422C82.3927 208.007 82.4934 207.537 82.4934 207.011V206.726H83.8367L83.8199 207.011C83.8199 207.828 83.6352 208.534 83.2658 209.127C82.8181 209.843 82.2024 210.201 81.4188 210.201C80.3106 210.201 79.5158 209.642 79.0345 208.522C78.6763 207.683 78.4972 206.552 78.4972 205.131C78.4972 203.776 78.6875 202.662 79.0681 201.789C79.5494 200.67 80.2826 200.11 81.2677 200.11C82.1856 200.11 82.874 200.636 83.333 201.688C83.7024 202.539 83.8871 203.591 83.8871 204.845ZM82.611 204.358L82.5774 203.955C82.5774 202.981 82.4487 202.276 82.1912 201.84C81.9785 201.481 81.6763 201.302 81.2845 201.302C80.8815 201.302 80.5345 201.604 80.2434 202.209C79.9636 202.813 79.8237 203.435 79.8237 204.073V204.358H82.611ZM90.5474 210H89.3216V203.72C89.3216 203.519 89.3216 203.356 89.3216 203.233C89.3216 202.629 89.2824 202.181 89.2041 201.89C89.0697 201.397 88.8179 201.118 88.4485 201.05C88.3141 201.028 88.219 201.017 88.163 201.017C87.6705 201.017 87.3067 201.269 87.0716 201.772C86.8477 202.265 86.7358 202.869 86.7358 203.586V210H85.4765V200.228H86.7358V201L86.8701 200.866C87.0156 200.72 87.1612 200.597 87.3067 200.496C87.5082 200.362 87.6985 200.261 87.8776 200.194C88.135 200.093 88.4037 200.043 88.6835 200.043C88.9858 200.043 89.26 200.099 89.5063 200.211C89.9988 200.424 90.3123 200.888 90.4466 201.604C90.5138 201.974 90.5474 202.679 90.5474 203.72V210ZM96.2395 201.42H94.6444V210H93.4018V201.42H92.344V200.244H93.4018V197.608H94.6444V200.228H96.2395V201.42ZM100.938 201.554L100.753 201.521C100.596 201.498 100.44 201.509 100.283 201.554C100.137 201.599 99.9752 201.694 99.7961 201.84C99.6282 201.974 99.4882 202.259 99.3763 202.696C99.2644 203.132 99.2084 203.642 99.2084 204.224V210H97.9491V200.228H99.2084V201.487L99.3091 201.369C99.4882 201.101 99.6729 200.832 99.8632 200.563C99.9864 200.418 100.121 200.312 100.266 200.244C100.412 200.166 100.563 200.116 100.72 200.093L100.938 200.06V201.554ZM107.98 205.047C107.98 206.457 107.812 207.593 107.477 208.455C107.018 209.619 106.273 210.201 105.243 210.201C104.158 210.201 103.38 209.642 102.91 208.522C102.551 207.672 102.372 206.541 102.372 205.131C102.372 203.731 102.551 202.606 102.91 201.756C103.38 200.636 104.13 200.076 105.16 200.076C106.01 200.076 106.665 200.401 107.124 201.05C107.695 201.856 107.98 203.188 107.98 205.047ZM106.671 205.047C106.671 203.95 106.598 203.127 106.452 202.578C106.217 201.705 105.792 201.269 105.176 201.269C104.617 201.269 104.208 201.716 103.951 202.612C103.76 203.272 103.665 204.129 103.665 205.181C103.665 206.591 103.811 207.599 104.102 208.203C104.359 208.729 104.723 208.993 105.193 208.993C105.775 208.993 106.184 208.539 106.419 207.632C106.587 206.994 106.671 206.132 106.671 205.047ZM119.315 210H118.039V209.228L117.82 209.463C117.653 209.664 117.451 209.826 117.216 209.95C116.981 210.062 116.779 210.129 116.612 210.151C116.455 210.174 116.32 210.185 116.209 210.185C115.347 210.185 114.759 209.586 114.445 208.388C114.244 207.616 114.143 206.479 114.143 204.979C114.143 203.535 114.261 202.455 114.496 201.739C114.865 200.619 115.542 200.06 116.528 200.06C116.807 200.06 117.037 200.093 117.216 200.16C117.406 200.228 117.597 200.362 117.787 200.563L118.056 200.849V194.771H119.298L119.315 210ZM118.156 204.862C118.156 204.593 118.156 204.392 118.156 204.257C118.156 203.272 118.089 202.556 117.955 202.108C117.742 201.414 117.35 201.067 116.779 201.067C116.376 201.067 116.063 201.336 115.839 201.873C115.57 202.522 115.436 203.541 115.436 204.929C115.436 206.373 115.509 207.381 115.654 207.951C115.856 208.746 116.242 209.144 116.813 209.144C117.529 209.144 117.955 208.41 118.089 206.944C118.134 206.463 118.156 205.769 118.156 204.862ZM126.426 204.845L126.409 205.45H122.346V205.618C122.346 206.916 122.486 207.823 122.766 208.338C123.012 208.797 123.376 209.026 123.857 209.026C124.238 209.026 124.529 208.825 124.73 208.422C124.932 208.007 125.032 207.537 125.032 207.011V206.726H126.376L126.359 207.011C126.359 207.828 126.174 208.534 125.805 209.127C125.357 209.843 124.741 210.201 123.958 210.201C122.85 210.201 122.055 209.642 121.574 208.522C121.215 207.683 121.036 206.552 121.036 205.131C121.036 203.776 121.227 202.662 121.607 201.789C122.088 200.67 122.822 200.11 123.807 200.11C124.725 200.11 125.413 200.636 125.872 201.688C126.241 202.539 126.426 203.591 126.426 204.845ZM125.15 204.358L125.116 203.955C125.116 202.981 124.988 202.276 124.73 201.84C124.518 201.481 124.215 201.302 123.824 201.302C123.421 201.302 123.074 201.604 122.782 202.209C122.503 202.813 122.363 203.435 122.363 204.073V204.358H125.15ZM129.728 210H128.486V194.771H129.728V210ZM137.804 198.28C137.513 198.28 137.283 198.19 137.115 198.011C136.959 197.821 136.88 197.603 136.88 197.356C136.88 197.099 136.959 196.881 137.115 196.701C137.272 196.522 137.501 196.433 137.804 196.433C138.095 196.433 138.319 196.528 138.475 196.718C138.643 196.897 138.727 197.11 138.727 197.356C138.727 197.614 138.649 197.832 138.492 198.011C138.335 198.19 138.106 198.28 137.804 198.28ZM138.391 213.694H137.132V200.228H138.391V213.694ZM146.111 207.313C146.111 208.276 145.898 208.998 145.473 209.479C145.059 209.95 144.454 210.185 143.66 210.185C141.913 210.185 141.04 209.216 141.04 207.28V200.228H142.283V206.491C142.283 207.285 142.333 207.84 142.434 208.153C142.613 208.713 142.993 208.993 143.576 208.993C144.124 208.993 144.493 208.713 144.684 208.153C144.807 207.795 144.868 207.241 144.868 206.491V200.228H146.111V207.313ZM153.198 204.845L153.181 205.45H149.117V205.618C149.117 206.916 149.257 207.823 149.537 208.338C149.783 208.797 150.147 209.026 150.629 209.026C151.009 209.026 151.3 208.825 151.502 208.422C151.703 208.007 151.804 207.537 151.804 207.011V206.726H153.147L153.13 207.011C153.13 207.828 152.946 208.534 152.576 209.127C152.129 209.843 151.513 210.201 150.729 210.201C149.621 210.201 148.826 209.642 148.345 208.522C147.987 207.683 147.808 206.552 147.808 205.131C147.808 203.776 147.998 202.662 148.379 201.789C148.86 200.67 149.593 200.11 150.578 200.11C151.496 200.11 152.185 200.636 152.644 201.688C153.013 202.539 153.198 203.591 153.198 204.845ZM151.922 204.358L151.888 203.955C151.888 202.981 151.759 202.276 151.502 201.84C151.289 201.481 150.987 201.302 150.595 201.302C150.192 201.302 149.845 201.604 149.554 202.209C149.274 202.813 149.134 203.435 149.134 204.073V204.358H151.922ZM160.093 210.856C160.093 211.371 160.048 211.836 159.959 212.25C159.869 212.664 159.701 213.022 159.455 213.325C159.287 213.549 159.03 213.722 158.683 213.845C158.347 213.968 157.983 214.03 157.591 214.03C157.177 214.03 156.796 213.963 156.449 213.828C156.102 213.705 155.811 213.498 155.576 213.207C155.352 212.916 155.207 212.614 155.14 212.3C155.072 211.998 155.039 211.606 155.039 211.125V210.924H156.265V211.175C156.265 211.746 156.382 212.16 156.617 212.418C156.863 212.687 157.199 212.821 157.625 212.821C158.072 212.821 158.386 212.67 158.565 212.368C158.755 212.076 158.85 211.573 158.85 210.856V209.463L158.666 209.614C158.442 209.793 158.218 209.922 157.994 210C157.77 210.067 157.518 210.101 157.238 210.101C156.265 210.101 155.587 209.535 155.207 208.405C154.938 207.621 154.804 206.513 154.804 205.08C154.804 203.244 155.044 201.935 155.526 201.151C155.929 200.491 156.522 200.16 157.306 200.16C157.832 200.16 158.252 200.323 158.565 200.647L158.85 200.95V200.228H160.093V210.856ZM158.951 204.946C158.951 204.677 158.951 204.476 158.951 204.341C158.951 203.099 158.834 202.259 158.599 201.823C158.363 201.386 158.022 201.168 157.574 201.168C157.037 201.168 156.645 201.61 156.399 202.494C156.209 203.166 156.113 204.006 156.113 205.013C156.113 206.345 156.22 207.358 156.433 208.052C156.656 208.735 157.043 209.076 157.591 209.076C158.028 209.076 158.363 208.841 158.599 208.371C158.834 207.89 158.951 206.983 158.951 205.651C158.951 205.438 158.951 205.282 158.951 205.181C158.951 205.069 158.951 204.991 158.951 204.946ZM167.394 205.047C167.394 206.457 167.227 207.593 166.891 208.455C166.432 209.619 165.687 210.201 164.658 210.201C163.572 210.201 162.794 209.642 162.324 208.522C161.965 207.672 161.786 206.541 161.786 205.131C161.786 203.731 161.965 202.606 162.324 201.756C162.794 200.636 163.544 200.076 164.574 200.076C165.424 200.076 166.079 200.401 166.538 201.05C167.109 201.856 167.394 203.188 167.394 205.047ZM166.085 205.047C166.085 203.95 166.012 203.127 165.866 202.578C165.631 201.705 165.206 201.269 164.59 201.269C164.031 201.269 163.622 201.716 163.365 202.612C163.174 203.272 163.079 204.129 163.079 205.181C163.079 206.591 163.225 207.599 163.516 208.203C163.773 208.729 164.137 208.993 164.607 208.993C165.189 208.993 165.598 208.539 165.833 207.632C166.001 206.994 166.085 206.132 166.085 205.047ZM176.781 195.274L176.294 196.147C175.735 197.166 175.315 198.224 175.035 199.321C174.755 200.407 174.615 201.61 174.615 202.931C174.615 204.252 174.749 205.444 175.018 206.507C175.287 207.56 175.712 208.64 176.294 209.748L176.748 210.638L175.807 211.058L175.388 210.302C174.794 209.25 174.341 208.103 174.027 206.86C173.714 205.606 173.557 204.257 173.557 202.813C173.557 201.381 173.714 200.099 174.027 198.968C174.307 197.938 174.8 196.763 175.505 195.442L175.824 194.838L176.781 195.274ZM179.873 198.28C179.582 198.28 179.352 198.19 179.184 198.011C179.028 197.821 178.949 197.603 178.949 197.356C178.949 197.099 179.028 196.881 179.184 196.701C179.341 196.522 179.571 196.433 179.873 196.433C180.164 196.433 180.388 196.528 180.544 196.718C180.712 196.897 180.796 197.11 180.796 197.356C180.796 197.614 180.718 197.832 180.561 198.011C180.405 198.19 180.175 198.28 179.873 198.28ZM180.461 210H179.201V200.228H180.461V210ZM187.913 210H186.687V203.72C186.687 203.519 186.687 203.356 186.687 203.233C186.687 202.629 186.648 202.181 186.569 201.89C186.435 201.397 186.183 201.118 185.814 201.05C185.679 201.028 185.584 201.017 185.528 201.017C185.036 201.017 184.672 201.269 184.437 201.772C184.213 202.265 184.101 202.869 184.101 203.586V210H182.842V200.228H184.101V201L184.235 200.866C184.381 200.72 184.526 200.597 184.672 200.496C184.873 200.362 185.064 200.261 185.243 200.194C185.5 200.093 185.769 200.043 186.049 200.043C186.351 200.043 186.625 200.099 186.872 200.211C187.364 200.424 187.678 200.888 187.812 201.604C187.879 201.974 187.913 202.679 187.913 203.72V210ZM193.84 201.957L193.554 201.722C193.454 201.644 193.358 201.565 193.269 201.487C193.067 201.364 192.855 201.302 192.631 201.302C192.06 201.302 191.618 201.711 191.304 202.528C191.036 203.222 190.901 204.022 190.901 204.929C190.901 206.149 191.053 207.134 191.355 207.884C191.657 208.634 192.038 209.009 192.497 209.009C192.799 209.009 193.056 208.925 193.269 208.757C193.381 208.668 193.51 208.528 193.655 208.338L193.789 208.17V209.715L193.605 209.832C193.414 209.966 193.213 210.062 193 210.118C192.799 210.174 192.597 210.201 192.396 210.201C191.366 210.201 190.616 209.619 190.146 208.455C189.788 207.571 189.608 206.412 189.608 204.979C189.608 203.703 189.821 202.618 190.247 201.722C190.75 200.647 191.483 200.11 192.446 200.11C192.603 200.11 192.748 200.127 192.883 200.16C193.028 200.183 193.196 200.228 193.386 200.295L193.84 200.463V201.957ZM197.281 210H196.038V194.771H197.281V210ZM204.488 207.313C204.488 208.276 204.275 208.998 203.85 209.479C203.436 209.95 202.831 210.185 202.036 210.185C200.29 210.185 199.417 209.216 199.417 207.28V200.228H200.66V206.491C200.66 207.285 200.71 207.84 200.811 208.153C200.99 208.713 201.37 208.993 201.953 208.993C202.501 208.993 202.87 208.713 203.061 208.153C203.184 207.795 203.245 207.241 203.245 206.491V200.228H204.488V207.313ZM211.86 200.228L208.435 213.694H207.175L208.116 209.664L205.882 200.228H207.142L208.871 208.103L210.534 200.228H211.86ZM218.483 204.845L218.466 205.45H214.403V205.618C214.403 206.916 214.542 207.823 214.822 208.338C215.069 208.797 215.432 209.026 215.914 209.026C216.294 209.026 216.585 208.825 216.787 208.422C216.988 208.007 217.089 207.537 217.089 207.011V206.726H218.432L218.416 207.011C218.416 207.828 218.231 208.534 217.862 209.127C217.414 209.843 216.798 210.201 216.015 210.201C214.906 210.201 214.112 209.642 213.63 208.522C213.272 207.683 213.093 206.552 213.093 205.131C213.093 203.776 213.283 202.662 213.664 201.789C214.145 200.67 214.878 200.11 215.863 200.11C216.781 200.11 217.47 200.636 217.929 201.688C218.298 202.539 218.483 203.591 218.483 204.845ZM217.207 204.358L217.173 203.955C217.173 202.981 217.044 202.276 216.787 201.84C216.574 201.481 216.272 201.302 215.88 201.302C215.477 201.302 215.13 201.604 214.839 202.209C214.559 202.813 214.419 203.435 214.419 204.073V204.358H217.207ZM229.638 210H228.362V209.228L228.144 209.463C227.987 209.664 227.78 209.826 227.523 209.95C227.276 210.062 227.075 210.129 226.918 210.151C226.773 210.174 226.644 210.185 226.532 210.185C225.67 210.185 225.082 209.586 224.769 208.388C224.567 207.616 224.467 206.479 224.467 204.979C224.467 203.535 224.584 202.455 224.819 201.739C225.189 200.619 225.866 200.06 226.851 200.06C227.131 200.06 227.36 200.093 227.539 200.16C227.73 200.228 227.92 200.362 228.11 200.563L228.379 200.849V200.228H229.638V210ZM228.48 204.862C228.48 204.593 228.48 204.392 228.48 204.257C228.48 203.272 228.413 202.556 228.278 202.108C228.066 201.414 227.674 201.067 227.103 201.067C226.7 201.067 226.386 201.336 226.163 201.873C225.894 202.522 225.76 203.541 225.76 204.929C225.76 206.373 225.832 207.381 225.978 207.951C226.179 208.746 226.566 209.144 227.136 209.144C227.853 209.144 228.278 208.41 228.413 206.944C228.457 206.463 228.48 205.769 228.48 204.862ZM234.567 201.554L234.382 201.521C234.225 201.498 234.069 201.509 233.912 201.554C233.766 201.599 233.604 201.694 233.425 201.84C233.257 201.974 233.117 202.259 233.005 202.696C232.893 203.132 232.837 203.642 232.837 204.224V210H231.578V200.228H232.837V201.487L232.938 201.369C233.117 201.101 233.302 200.832 233.492 200.563C233.615 200.418 233.75 200.312 233.895 200.244C234.041 200.166 234.192 200.116 234.348 200.093L234.567 200.06V201.554ZM240.081 201.42H238.486V210H237.244V201.42H236.186V200.244H237.244V197.608H238.486V200.228H240.081V201.42ZM243.671 210H242.412V200.211H243.671V210ZM244.83 196.601L242.345 198.817L241.556 198.28L243.638 195.677L244.83 196.601ZM250.424 201.957L250.138 201.722C250.038 201.644 249.942 201.565 249.853 201.487C249.651 201.364 249.439 201.302 249.215 201.302C248.644 201.302 248.202 201.711 247.888 202.528C247.62 203.222 247.485 204.022 247.485 204.929C247.485 206.149 247.637 207.134 247.939 207.884C248.241 208.634 248.622 209.009 249.081 209.009C249.383 209.009 249.64 208.925 249.853 208.757C249.965 208.668 250.094 208.528 250.239 208.338L250.373 208.17V209.715L250.189 209.832C249.998 209.966 249.797 210.062 249.584 210.118C249.383 210.174 249.181 210.201 248.98 210.201C247.95 210.201 247.2 209.619 246.73 208.455C246.372 207.571 246.192 206.412 246.192 204.979C246.192 203.703 246.405 202.618 246.831 201.722C247.334 200.647 248.067 200.11 249.03 200.11C249.187 200.11 249.332 200.127 249.467 200.16C249.612 200.183 249.78 200.228 249.97 200.295L250.424 200.463V201.957ZM257.24 207.313C257.24 208.276 257.027 208.998 256.602 209.479C256.188 209.95 255.583 210.185 254.788 210.185C253.042 210.185 252.169 209.216 252.169 207.28V200.228H253.412V206.491C253.412 207.285 253.462 207.84 253.563 208.153C253.742 208.713 254.122 208.993 254.704 208.993C255.253 208.993 255.622 208.713 255.813 208.153C255.936 207.795 255.997 207.241 255.997 206.491V200.228H257.24V207.313ZM260.633 210H259.39V194.771H260.633V210ZM268.293 205.047C268.293 206.457 268.125 207.593 267.789 208.455C267.33 209.619 266.586 210.201 265.556 210.201C264.47 210.201 263.692 209.642 263.222 208.522C262.864 207.672 262.685 206.541 262.685 205.131C262.685 203.731 262.864 202.606 263.222 201.756C263.692 200.636 264.442 200.076 265.472 200.076C266.323 200.076 266.978 200.401 267.437 201.05C268.007 201.856 268.293 203.188 268.293 205.047ZM266.983 205.047C266.983 203.95 266.91 203.127 266.765 202.578C266.53 201.705 266.104 201.269 265.489 201.269C264.929 201.269 264.521 201.716 264.263 202.612C264.073 203.272 263.978 204.129 263.978 205.181C263.978 206.591 264.123 207.599 264.414 208.203C264.672 208.729 265.035 208.993 265.506 208.993C266.088 208.993 266.496 208.539 266.731 207.632C266.899 206.994 266.983 206.132 266.983 205.047ZM274.444 206.558C274.511 206.815 274.544 207.073 274.544 207.33C274.544 208.035 274.337 208.662 273.923 209.211C273.509 209.748 272.96 210.056 272.278 210.134C272.199 210.146 272.127 210.151 272.059 210.151C272.003 210.151 271.964 210.151 271.942 210.151C271.673 210.151 271.41 210.106 271.153 210.017C270.895 209.927 270.632 209.804 270.363 209.647L270.095 209.479V208.035L270.313 208.22C270.671 208.511 270.901 208.685 271.002 208.741C271.259 208.897 271.528 208.976 271.807 208.976C272.244 208.976 272.591 208.841 272.849 208.573C273.117 208.304 273.252 207.912 273.252 207.397C273.252 207.017 273.1 206.642 272.798 206.272C272.675 206.127 272.39 205.841 271.942 205.416L271.707 205.198C271.181 204.716 270.85 204.392 270.716 204.224C270.347 203.765 270.162 203.295 270.162 202.813C270.162 202.108 270.319 201.515 270.632 201.034C270.99 200.485 271.5 200.172 272.16 200.093C272.238 200.082 272.35 200.076 272.496 200.076C272.787 200.076 273.05 200.116 273.285 200.194C273.531 200.261 273.772 200.362 274.007 200.496L274.276 200.647V202.259L274.041 202.024C273.761 201.744 273.554 201.56 273.419 201.47C273.184 201.313 272.932 201.235 272.664 201.235C272.283 201.235 271.981 201.347 271.757 201.571C271.533 201.795 271.421 202.069 271.421 202.394C271.421 202.841 271.567 203.25 271.858 203.619C272.015 203.81 272.311 204.095 272.748 204.476L272.966 204.66C273.425 205.063 273.727 205.349 273.873 205.517C274.141 205.83 274.332 206.177 274.444 206.558ZM285.783 210H284.507V209.228L284.288 209.463C284.132 209.664 283.925 209.826 283.667 209.95C283.421 210.062 283.219 210.129 283.063 210.151C282.917 210.174 282.788 210.185 282.677 210.185C281.815 210.185 281.227 209.586 280.913 208.388C280.712 207.616 280.611 206.479 280.611 204.979C280.611 203.535 280.729 202.455 280.964 201.739C281.333 200.619 282.01 200.06 282.996 200.06C283.275 200.06 283.505 200.093 283.684 200.16C283.874 200.228 284.065 200.362 284.255 200.563L284.524 200.849V200.228H285.783V210ZM284.624 204.862C284.624 204.593 284.624 204.392 284.624 204.257C284.624 203.272 284.557 202.556 284.423 202.108C284.21 201.414 283.818 201.067 283.247 201.067C282.844 201.067 282.531 201.336 282.307 201.873C282.038 202.522 281.904 203.541 281.904 204.929C281.904 206.373 281.977 207.381 282.122 207.951C282.324 208.746 282.71 209.144 283.281 209.144C283.997 209.144 284.423 208.41 284.557 206.944C284.602 206.463 284.624 205.769 284.624 204.862ZM289.267 210H288.025V194.771H289.267V210ZM296.793 204.845L296.777 205.45H292.713V205.618C292.713 206.916 292.853 207.823 293.133 208.338C293.379 208.797 293.743 209.026 294.224 209.026C294.605 209.026 294.896 208.825 295.097 208.422C295.299 208.007 295.4 207.537 295.4 207.011V206.726H296.743L296.726 207.011C296.726 207.828 296.541 208.534 296.172 209.127C295.724 209.843 295.109 210.201 294.325 210.201C293.217 210.201 292.422 209.642 291.941 208.522C291.583 207.683 291.403 206.552 291.403 205.131C291.403 203.776 291.594 202.662 291.974 201.789C292.456 200.67 293.189 200.11 294.174 200.11C295.092 200.11 295.78 200.636 296.239 201.688C296.609 202.539 296.793 203.591 296.793 204.845ZM295.517 204.358L295.484 203.955C295.484 202.981 295.355 202.276 295.097 201.84C294.885 201.481 294.583 201.302 294.191 201.302C293.788 201.302 293.441 201.604 293.15 202.209C292.87 202.813 292.73 203.435 292.73 204.073V204.358H295.517ZM303.554 210H302.278V209.228L302.06 209.463C301.903 209.664 301.696 209.826 301.439 209.95C301.192 210.062 300.991 210.129 300.834 210.151C300.689 210.174 300.56 210.185 300.448 210.185C299.586 210.185 298.998 209.586 298.685 208.388C298.483 207.616 298.383 206.479 298.383 204.979C298.383 203.535 298.5 202.455 298.735 201.739C299.105 200.619 299.782 200.06 300.767 200.06C301.047 200.06 301.276 200.093 301.455 200.16C301.646 200.228 301.836 200.362 302.026 200.563L302.295 200.849V200.228H303.554V210ZM302.396 204.862C302.396 204.593 302.396 204.392 302.396 204.257C302.396 203.272 302.329 202.556 302.194 202.108C301.982 201.414 301.59 201.067 301.019 201.067C300.616 201.067 300.302 201.336 300.079 201.873C299.81 202.522 299.676 203.541 299.676 204.929C299.676 206.373 299.748 207.381 299.894 207.951C300.095 208.746 300.482 209.144 301.052 209.144C301.769 209.144 302.194 208.41 302.329 206.944C302.373 206.463 302.396 205.769 302.396 204.862ZM309.339 201.42H307.744V210H306.501V201.42H305.444V200.244H306.501V197.608H307.744V200.228H309.339V201.42ZM316.422 205.047C316.422 206.457 316.254 207.593 315.918 208.455C315.459 209.619 314.715 210.201 313.685 210.201C312.599 210.201 311.821 209.642 311.351 208.522C310.993 207.672 310.814 206.541 310.814 205.131C310.814 203.731 310.993 202.606 311.351 201.756C311.821 200.636 312.571 200.076 313.601 200.076C314.452 200.076 315.107 200.401 315.565 201.05C316.136 201.856 316.422 203.188 316.422 205.047ZM315.112 205.047C315.112 203.95 315.039 203.127 314.894 202.578C314.659 201.705 314.233 201.269 313.618 201.269C313.058 201.269 312.649 201.716 312.392 202.612C312.202 203.272 312.107 204.129 312.107 205.181C312.107 206.591 312.252 207.599 312.543 208.203C312.801 208.729 313.164 208.993 313.634 208.993C314.217 208.993 314.625 208.539 314.86 207.632C315.028 206.994 315.112 206.132 315.112 205.047ZM321.28 201.554L321.095 201.521C320.938 201.498 320.782 201.509 320.625 201.554C320.479 201.599 320.317 201.694 320.138 201.84C319.97 201.974 319.83 202.259 319.718 202.696C319.606 203.132 319.55 203.642 319.55 204.224V210H318.291V200.228H319.55V201.487L319.651 201.369C319.83 201.101 320.015 200.832 320.205 200.563C320.328 200.418 320.462 200.312 320.608 200.244C320.754 200.166 320.905 200.116 321.061 200.093L321.28 200.06V201.554ZM324.242 198.28C323.951 198.28 323.721 198.19 323.554 198.011C323.397 197.821 323.318 197.603 323.318 197.356C323.318 197.099 323.397 196.881 323.554 196.701C323.71 196.522 323.94 196.433 324.242 196.433C324.533 196.433 324.757 196.528 324.914 196.718C325.082 196.897 325.165 197.11 325.165 197.356C325.165 197.614 325.087 197.832 324.93 198.011C324.774 198.19 324.544 198.28 324.242 198.28ZM324.83 210H323.57V200.228H324.83V210ZM332.752 205.047C332.752 206.457 332.584 207.593 332.248 208.455C331.789 209.619 331.045 210.201 330.015 210.201C328.929 210.201 328.151 209.642 327.681 208.522C327.323 207.672 327.144 206.541 327.144 205.131C327.144 203.731 327.323 202.606 327.681 201.756C328.151 200.636 328.901 200.076 329.931 200.076C330.782 200.076 331.437 200.401 331.896 201.05C332.466 201.856 332.752 203.188 332.752 205.047ZM331.442 205.047C331.442 203.95 331.369 203.127 331.224 202.578C330.989 201.705 330.563 201.269 329.948 201.269C329.388 201.269 328.979 201.716 328.722 202.612C328.532 203.272 328.437 204.129 328.437 205.181C328.437 206.591 328.582 207.599 328.873 208.203C329.131 208.729 329.494 208.993 329.965 208.993C330.547 208.993 330.955 208.539 331.19 207.632C331.358 206.994 331.442 206.132 331.442 205.047ZM338.903 206.558C338.97 206.815 339.003 207.073 339.003 207.33C339.003 208.035 338.796 208.662 338.382 209.211C337.968 209.748 337.419 210.056 336.737 210.134C336.658 210.146 336.585 210.151 336.518 210.151C336.462 210.151 336.423 210.151 336.401 210.151C336.132 210.151 335.869 210.106 335.612 210.017C335.354 209.927 335.091 209.804 334.822 209.647L334.554 209.479V208.035L334.772 208.22C335.13 208.511 335.36 208.685 335.46 208.741C335.718 208.897 335.987 208.976 336.266 208.976C336.703 208.976 337.05 208.841 337.308 208.573C337.576 208.304 337.71 207.912 337.71 207.397C337.71 207.017 337.559 206.642 337.257 206.272C337.134 206.127 336.849 205.841 336.401 205.416L336.166 205.198C335.64 204.716 335.309 204.392 335.175 204.224C334.806 203.765 334.621 203.295 334.621 202.813C334.621 202.108 334.778 201.515 335.091 201.034C335.449 200.485 335.959 200.172 336.619 200.093C336.697 200.082 336.809 200.076 336.955 200.076C337.246 200.076 337.509 200.116 337.744 200.194C337.99 200.261 338.231 200.362 338.466 200.496L338.735 200.647V202.259L338.5 202.024C338.22 201.744 338.013 201.56 337.878 201.47C337.643 201.313 337.391 201.235 337.123 201.235C336.742 201.235 336.44 201.347 336.216 201.571C335.992 201.795 335.88 202.069 335.88 202.394C335.88 202.841 336.026 203.25 336.317 203.619C336.474 203.81 336.77 204.095 337.207 204.476L337.425 204.66C337.884 205.063 338.186 205.349 338.332 205.517C338.6 205.83 338.791 206.177 338.903 206.558ZM343.916 203.2C343.916 204.621 343.765 205.881 343.463 206.978C343.161 208.063 342.663 209.267 341.969 210.588L341.65 211.192L340.692 210.756L341.179 209.866C341.739 208.847 342.159 207.795 342.439 206.709C342.719 205.612 342.859 204.409 342.859 203.099C342.859 201.767 342.724 200.575 342.456 199.522C342.187 198.47 341.762 197.39 341.179 196.282L340.726 195.392L341.666 194.972L342.086 195.744C342.668 196.774 343.116 197.916 343.429 199.17C343.754 200.412 343.916 201.756 343.916 203.2Z" fill="black"/>
</g>
<defs>
<clipPath id="clip0">
<rect width="361" height="221" fill="white"/>
</clipPath>
<clipPath id="clip1">
<rect width="140" height="170.802" fill="white" transform="translate(22 10.3917)"/>
</clipPath>
<clipPath id="clip2">
<rect width="160" height="160" fill="white" transform="translate(182 10.3917)"/>
</clipPath>
</defs>
</svg>
